<?xml version="1.0" standalone="no"?>
<!DOCTYPE svg PUBLIC "-//W3C//DTD SVG 20010904//EN"
 "http://www.w3.org/TR/2001/REC-SVG-20010904/DTD/svg10.dtd">
<svg version="1.0" xmlns="http://www.w3.org/2000/svg"
 width="55.000000pt" height="55.000000pt" viewBox="0 0 55.000000 55.000000"
 preserveAspectRatio="xMidYMid meet">
<metadata>
Created by potrace 1.16, written by Peter Selinger 2001-2019
</metadata>
<g transform="translate(0.000000,55.000000) scale(0.100000,-0.100000)"
fill="#ffffff" stroke="none">
<path d="M70 501 c-15 -4 -24 -14 -24 -24 1 -11 -6 -17 -17 -17 -19 0 -37 -25
-26 -37 4 -3 35 2 71 11 36 9 69 16 74 16 14 0 9 -89 -5 -95 -7 -2 -13 -16
-13 -30 0 -30 -15 -33 -32 -5 -13 21 -33 26 -42 11 -3 -5 4 -20 15 -35 15 -19
30 -26 53 -26 29 0 34 4 40 30 5 27 9 30 44 30 22 0 58 6 80 14 l41 15 3 -37
c4 -52 32 -51 36 1 3 30 7 37 18 33 9 -3 20 -6 24 -6 16 0 80 -62 96 -91 38
-75 -11 -189 -83 -189 -49 0 -123 23 -148 46 -23 21 -36 24 -100 24 -67 0 -75
-2 -94 -26 -11 -15 -18 -30 -15 -35 9 -15 29 -10 42 11 18 29 111 29 137 0 24
-26 105 -50 170 -50 88 0 135 54 135 157 0 71 -28 122 -89 164 -41 27 -117 46
-144 36 -8 -3 -13 4 -12 21 0 22 -10 32 -60 58 -61 33 -119 41 -175 25z"/>
</g>
</svg>
