<?xml version="1.0" encoding="UTF-8"?>
<svg version="1.1" xmlns="http://www.w3.org/2000/svg" width="55" height="55">
<path d="M0 0 C-0.020625 0.969375 -0.04125 1.93875 -0.0625 2.9375 C-0.35618499 5.87465895 -0.35618499 5.87465895 1 7 C2.51165654 7.39148761 4.03469632 7.73972457 5.5625 8.0625 C6.38878906 8.23910156 7.21507812 8.41570313 8.06640625 8.59765625 C8.70449219 8.73042969 9.34257813 8.86320313 10 9 C10.625 10.8125 10.625 10.8125 11 13 C10.34 13.99 9.68 14.98 9 16 C6.375 16.1875 6.375 16.1875 4 16 C5.55483382 21.0614803 7.16750198 25.49375316 10 30 C12.03686987 36.13870437 12.0202459 44.02931326 10.421875 50.25 C9.5625 51.875 9.5625 51.875 7 54 C0.65236595 55.6640732 -5.27780708 53.03732124 -11.19140625 50.8828125 C-14.68593928 49.78439183 -17.37676936 49.84581997 -21 50 C-24 48 -24 48 -24.44140625 46.046875 C-24.50134766 44.90992187 -24.50134766 44.90992187 -24.5625 43.75 C-24.78429125 40.84823111 -25.07954142 38.77541245 -26.0625 36 C-27.30668954 32.01859348 -27.53656873 28.14262626 -27 24 C-26.01 22.515 -26.01 22.515 -25 21 C-23.72046185 16.7775241 -24.03279743 12.65939092 -24.2578125 8.3046875 C-24 6 -24 6 -22.69140625 4.20703125 C-20.1790455 2.41414564 -17.9958364 2.80027757 -15 3 C-15 2.34 -15 1.68 -15 1 C-10.05183286 -1.80396138 -5.38317715 -0.77350507 0 0 Z M-12.375 8.6875 C-14.27258004 11.38790237 -14.35882213 12.77060081 -14 16 C-13.113125 15.21625 -12.22625 14.4325 -11.3125 13.625 C-8.69279481 11.42843009 -6.28284399 10.06209659 -3 9 C-3.33 8.34 -3.66 7.68 -4 7 C-7.57763189 6.67476074 -9.39542581 6.57043413 -12.375 8.6875 Z M-20 10 C-20 12.31 -20 14.62 -20 17 C-19.01 16.67 -18.02 16.34 -17 16 C-17.33 14.02 -17.66 12.04 -18 10 C-18.66 10 -19.32 10 -20 10 Z M-8 15 C-9.34689915 17.57099402 -9.34689915 17.57099402 -10 20 C-8.68 20.33 -7.36 20.66 -6 21 C-5.7525 20.071875 -5.505 19.14375 -5.25 18.1875 C-3.93545755 14.83541675 -3.02036616 13.8122197 0 12 C-3.67718093 12 -5.07076189 12.82184858 -8 15 Z M-1 17 C-1.66 18.65 -2.32 20.3 -3 22 C-1.68 22 -0.36 22 1 22 C1 20.35 1 18.7 1 17 C0.34 17 -0.32 17 -1 17 Z M-20.6875 21.9375 C-23.75815408 26.00404189 -23.64682637 29.0656388 -23 34 C-22.67 34.99 -22.34 35.98 -22 37 C-21.34 37 -20.68 37 -20 37 C-18.78068108 35.57403548 -18.78068108 35.57403548 -17.625 33.75 C-16.04942002 31.41945462 -14.71854955 29.74076932 -12.625 27.8125 C-10.75154792 26.14172438 -10.75154792 26.14172438 -11.0625 23.875 C-11.97803552 21.65632042 -11.97803552 21.65632042 -15 20 C-18.14659341 19.70759921 -18.14659341 19.70759921 -20.6875 21.9375 Z M-7 25 C-8.55238677 26.59446261 -8.55238677 26.59446261 -9.9375 28.6875 C-11.67060448 31.13195334 -13.38051104 33.45249961 -15.3125 35.75 C-16.9842852 37.97904693 -17.43499662 39.33721181 -18 42 C-11.39796659 47.4016637 -3.64503204 51 5 51 C8.43941762 44.80904828 8.31864445 39.89433006 7 33 C6.17471917 29.42522495 6.17471917 29.42522495 4 27 C0.37431812 25.44829899 -3.07900368 25 -7 25 Z " fill="#06693a" transform="translate(36,1)"/>
</svg>
