<?xml version="1.0" encoding="UTF-8"?>
<svg version="1.1" xmlns="http://www.w3.org/2000/svg" width="86" height="84">
<path d="M0 0 C1.30324219 -0.0309375 1.30324219 -0.0309375 2.6328125 -0.0625 C9.63914581 -0.10458008 14.91680482 1.15706349 20.9375 4.9375 C30.90574576 14.90574576 32.06008851 29.5205714 34.1015625 42.85961914 C34.95547781 48.16816468 36.31299095 53.00626891 38.3828125 57.98828125 C41.04875607 64.94135028 40.98464621 71.66008447 38.171875 78.51953125 C36.30604965 82.0219068 33.88658128 83.03780624 30.25 84.25 C18.58280357 85.31065422 8.86128186 79.78756712 -0.81640625 73.95703125 C-5.36237205 71.31177552 -8.45872536 71.15689215 -13.6484375 71.2578125 C-15.02863843 71.27533262 -16.40884725 71.29224054 -17.7890625 71.30859375 C-19.95725435 71.33951183 -22.12504958 71.37500106 -24.29296875 71.42138672 C-26.39067427 71.46389487 -28.48791745 71.48721324 -30.5859375 71.5078125 C-31.83938965 71.5298877 -33.0928418 71.55196289 -34.38427734 71.57470703 C-38.01832986 71.22411296 -39.8515331 70.41785886 -42.75 68.25 C-47.5888551 61.28012594 -45.94123251 51.17884361 -44.75 43.25 C-42.01622051 29.300336 -36.12207865 16.17878845 -24.75 7.25 C-16.23651016 1.78611846 -9.94915916 0.05801259 0 0 Z " fill="rgba(6, 105, 58, .2)" transform="translate(45.75,-0.25)"/>
</svg>
