<?xml version="1.0" encoding="UTF-8"?>
<svg version="1.1" xmlns="http://www.w3.org/2000/svg" width="512" height="512">
<path d="M0 0 C0.82371094 -0.02191406 1.64742187 -0.04382813 2.49609375 -0.06640625 C13.16903532 2.12256648 20.17803537 9.46282531 27.51953125 16.92578125 C28.63581499 18.04378029 29.75299446 19.16088563 30.87101746 20.27714539 C33.19919805 22.60696996 35.51869221 24.94499432 37.83178711 27.28979492 C40.78125594 30.27898381 43.74811101 33.25015246 46.72124195 36.21578693 C49.02549316 38.51695372 51.32203894 40.82568625 53.61621666 43.13689232 C54.70703968 44.23469207 55.79976679 45.33060354 56.89451027 46.42449379 C72.54345993 62.0920059 72.54345993 62.0920059 72.9375 72.625 C72.98648438 73.50285156 73.03546875 74.38070312 73.0859375 75.28515625 C71.64511346 84.30643514 66.11732023 90.69433417 59.671875 96.765625 C58.92665588 97.49191101 58.18143677 98.21819702 57.41363525 98.9664917 C55.05845743 101.26114892 52.68776784 103.53865677 50.3125 105.8125 C47.16785336 108.82406002 44.040244 111.85189051 40.921875 114.890625 C39.83758209 115.91268036 39.83758209 115.91268036 38.73138428 116.9553833 C35.69017821 119.92099939 33.79929702 121.76741385 32.56933594 125.8972168 C32.51721723 146.21793018 56.0770775 170.77316461 69.296875 185.0859375 C71.17396161 187.13778734 72.99624637 189.21910954 74.8125 191.32421875 C84.42464225 202.33374352 94.949538 212.68199965 106.5625 221.5625 C107.5628125 222.3565625 108.563125 223.150625 109.59375 223.96875 C120.31967683 232.44749645 131.52061263 240.08303995 143.5 246.6875 C144.18545898 247.0781665 144.87091797 247.46883301 145.57714844 247.87133789 C149.35243411 249.88583106 153.06570187 251.51229731 157.4519043 251.24438477 C162.47499949 249.62153863 165.97166972 245.24649161 169.5625 241.5625 C170.59574037 240.52299128 171.62995734 239.48445256 172.66503906 238.44677734 C176.60165171 234.48184641 180.51692508 230.49577448 184.39990234 226.47827148 C186.07243489 224.75091358 187.75770285 223.03683293 189.4453125 221.32421875 C189.94136993 220.80437912 190.43742737 220.28453949 190.94851685 219.74894714 C196.26211432 214.39688828 202.26255167 210.99549709 209.9375 210.9375 C210.95585937 210.90398437 211.97421875 210.87046875 213.0234375 210.8359375 C223.47544902 212.9817147 230.87032898 221.30118598 238.08203125 228.62109375 C239.15361944 229.69507327 240.22595588 230.76830668 241.29899597 231.84083557 C243.53136704 234.07631283 245.75692837 236.31827398 247.97729492 238.56567383 C250.80907787 241.43151567 253.65392989 244.28393354 256.50354481 247.13203335 C258.71330102 249.3423358 260.91778918 251.55783034 263.12058067 253.7750721 C264.16749147 254.82829892 265.21557525 255.88036124 266.26490211 256.93118095 C282.43151603 273.14605676 282.43151603 273.14605676 282.875 283.9375 C282.3772391 298.84543891 269.00057552 308.24168765 259.12280273 317.96630859 C255.55450355 321.49250965 252.09731995 325.03776348 248.8359375 328.8515625 C240.58891824 338.42454523 230.02778532 343.87842736 217.5625 345.5625 C157.87819096 349.35197994 96.43042515 307.24460754 53.38720703 269.75244141 C41.50038352 259.27742756 29.99503395 248.50108396 19.5625 236.5625 C19.09569824 236.0351123 18.62889648 235.50772461 18.14794922 234.96435547 C10.40998734 226.21496276 3.18724594 217.12182869 -3.79638672 207.76123047 C-4.88220388 206.30647454 -5.97231649 204.85491391 -7.06689453 203.40673828 C-16.17332775 191.33872984 -24.04823353 178.74676539 -31.4375 165.5625 C-31.92492676 164.69753906 -32.41235352 163.83257812 -32.91455078 162.94140625 C-47.79292774 136.29719866 -60.77756975 106.05573724 -60.8125 75.125 C-60.83699219 73.98740234 -60.86148438 72.84980469 -60.88671875 71.67773438 C-60.93978847 56.1725306 -55.1726814 45.07522239 -44.49980164 34.15666199 C-43.40741936 33.06397758 -43.40741936 33.06397758 -42.29296875 31.94921875 C-41.52374588 31.17238235 -40.75452301 30.39554596 -39.96199036 29.59516907 C-38.34463958 27.96708328 -36.72337724 26.3428747 -35.09838867 24.72241211 C-32.62812494 22.2531237 -30.18000338 19.76323276 -27.73242188 17.27148438 C-26.14973993 15.6835966 -24.5657971 14.09696439 -22.98046875 12.51171875 C-22.25828659 11.77314133 -21.53610443 11.0345639 -20.79203796 10.27360535 C-15.00042877 4.55890963 -8.44718444 -0.01317813 0 0 Z M-6.375 18 C-7.8909375 19.2684375 -7.8909375 19.2684375 -9.4375 20.5625 C-3.75728209 27.50353433 2.61251756 33.73923906 8.9609375 40.05859375 C10.16327468 41.25906287 11.36538905 42.45975518 12.56729126 43.66065979 C15.71159163 46.80116548 18.85888479 49.93865481 22.00683594 53.07550049 C25.22644173 56.28482618 28.44317321 59.49703005 31.66015625 62.70898438 C37.95814635 68.99629102 44.25930565 75.28041106 50.5625 81.5625 C53.87828458 79.99041994 55.8414981 78.91392475 57.5625 75.5625 C57.33697419 69.72007855 55.8661626 67.11142254 51.78662109 63.01025391 C51.29053345 62.50365234 50.7944458 61.99705078 50.2833252 61.47509766 C48.64890649 59.81439716 46.99366707 58.17646976 45.3359375 56.5390625 C44.18740472 55.38648476 43.03976361 54.23301785 41.89297485 53.07870483 C39.48987625 50.66677569 37.0763005 48.265993 34.65478516 45.87255859 C31.55741494 42.80937299 28.48776684 39.72003372 25.4254818 36.62182045 C23.06163805 34.23625686 20.68364083 31.86521634 18.30116653 29.49827194 C17.16371228 28.36480958 16.03066893 27.22690234 14.90223312 26.08446121 C13.32050726 24.48743141 11.72069559 22.91099882 10.11474609 21.33837891 C9.20953217 20.43793854 8.30431824 19.53749817 7.37167358 18.60977173 C2.83975082 15.3069935 -1.88676182 14.2445354 -6.375 18 Z M-27.41210938 38.21484375 C-28.18361328 38.98957031 -28.95511719 39.76429688 -29.75 40.5625 C-30.50990234 41.30628906 -31.26980469 42.05007812 -32.05273438 42.81640625 C-40.60627377 51.36251425 -45.62184528 59.0280432 -45.81811523 71.35229492 C-45.79608222 82.96752469 -44.79770951 93.43544784 -41.4375 104.5625 C-41.20675781 105.33062012 -40.97601563 106.09874023 -40.73828125 106.89013672 C-29.26776913 143.97964317 -8.52266083 177.40791213 15.5625 207.5625 C15.98611816 208.09649414 16.40973633 208.63048828 16.84619141 209.18066406 C21.51966477 215.05707848 26.40847434 220.70449242 31.46875 226.25 C33.25154386 228.21905591 34.97368447 230.22140202 36.6875 232.25 C44.88861439 241.66111487 53.98794819 250.5593441 63.5625 258.5625 C64.46484375 259.35398437 65.3671875 260.14546875 66.296875 260.9609375 C75.27046465 268.79063785 84.8008056 275.75135576 94.5625 282.5625 C95.20977051 283.01512207 95.85704102 283.46774414 96.52392578 283.93408203 C106.8415346 291.10127594 117.5998539 297.43788124 128.5625 303.5625 C129.32014648 303.99062988 130.07779297 304.41875977 130.85839844 304.85986328 C155.75700707 318.84851089 192.54870021 337.05514903 221.9375 329.4375 C230.77756273 326.20514119 237.10758748 319.28784382 243.5625 312.6875 C244.72458984 311.511875 244.72458984 311.511875 245.91015625 310.3125 C247.79897093 308.40036662 249.68291391 306.48369818 251.5625 304.5625 C245.82161114 297.53944971 239.36556544 291.2390639 232.9453125 284.84765625 C231.72055511 283.62476684 230.49602047 282.4016543 229.271698 281.17832947 C226.06821366 277.97864044 222.86173634 274.78196752 219.65460205 271.5859375 C216.37467384 268.316288 213.09761874 265.0437616 209.8203125 261.77148438 C203.40383235 255.36568881 196.984183 248.96307951 190.5625 242.5625 C185.25620179 247.00942315 185.25620179 247.00942315 180.31640625 251.8515625 C179.78853516 252.40070313 179.26066406 252.94984375 178.71679688 253.515625 C177.65353965 254.63237124 176.59624137 255.75482075 175.54492188 256.8828125 C170.02150614 262.58787528 164.17769972 266.11552913 156.0625 266.3125 C147.7125917 266.06271642 141.56395444 262.7500619 134.48681641 258.66503906 C132.71563886 257.65024107 130.91167069 256.69324976 129.10546875 255.7421875 C102.28282749 241.31604051 77.2397978 218.67932546 57.5625 195.5625 C56.76328125 194.65242187 55.9640625 193.74234375 55.140625 192.8046875 C16.74273901 148.76879209 16.74273901 148.76879209 17.29858398 124.77807617 C18.46589527 114.97849256 24.41406902 108.93853245 31.3125 102.4375 C32.64474609 101.14585937 32.64474609 101.14585937 34.00390625 99.828125 C36.17698565 97.72514493 38.36281092 95.63756986 40.5625 93.5625 C34.88740113 86.64139004 28.55380374 80.3898269 22.234375 74.06640625 C21.03697585 72.86578986 19.83965039 71.66509998 18.64239502 70.46434021 C16.14617762 67.96216531 13.64793283 65.46203502 11.1484375 62.96313477 C7.93977828 59.75457788 4.73809486 56.53915407 1.53806686 53.32199192 C-0.92570296 50.8471404 -3.3939669 48.37680984 -5.86354828 45.90775871 C-7.0469488 44.72317568 -8.22872247 43.53696514 -9.40885162 42.349123 C-11.05076553 40.69747115 -12.6988213 39.05220498 -14.34863281 37.40844727 C-15.0811174 36.66753342 -15.0811174 36.66753342 -15.82839966 35.91165161 C-21.21060953 30.579784 -22.68252859 33.53069999 -27.41210938 38.21484375 Z M201.5625 230.5625 C203.17873263 234.61852714 206.06402676 237.33205528 209.11376953 240.34082031 C209.67976868 240.90711151 210.24576782 241.47340271 210.82891846 242.05685425 C212.6963472 243.92289238 214.57075462 245.78175096 216.4453125 247.640625 C217.74326411 248.93484554 219.04077416 250.22950905 220.33786011 251.52459717 C223.74964836 254.92875646 227.16740052 258.32686634 230.58642578 261.72375488 C234.0755592 265.19241407 237.55902387 268.66675583 241.04296875 272.140625 C247.87727368 278.95349302 254.71789203 285.7599842 261.5625 292.5625 C264.67619179 291.826409 264.67619179 291.826409 266.3125 289.375 C267.94508221 285.70169002 267.90527189 284.36702035 266.5625 280.5625 C261.46248855 273.79851807 255.08822991 267.94098979 249.10546875 261.97265625 C248.11120788 260.97772022 247.11709537 259.98263591 246.12312317 258.9874115 C244.0564372 256.91926268 241.98798207 254.85290484 239.91821289 252.7878418 C237.26396436 250.13933484 234.61429165 247.4863022 231.96589184 244.83194828 C229.92170851 242.78415919 227.87515928 240.738748 225.82787514 238.69405937 C224.84910995 237.71596109 223.87108659 236.7371199 222.89381981 235.75752449 C221.53473795 234.39591106 220.172118 233.03783188 218.80932617 231.67993164 C218.03546066 230.90686172 217.26159515 230.13379181 216.46427917 229.33729553 C214.0771386 227.10954665 213.01602656 226.61289184 209.75 226.25 C205.86821912 226.63056675 204.35777955 227.93164866 201.5625 230.5625 Z " fill="#06693a" transform="translate(108.4375,160.4375)"/>
<path d="M0 0 C0.80050781 0.69867188 1.60101563 1.39734375 2.42578125 2.1171875 C3.40160156 2.96023437 4.37742187 3.80328125 5.3828125 4.671875 C12.13071628 10.60905021 18.05713587 16.87664275 23.42578125 24.1171875 C24.01673584 24.91237793 24.01673584 24.91237793 24.61962891 25.72363281 C42.82655761 50.59128097 51.88853537 79.39438183 51.80078125 110.1171875 C51.79996552 111.19818726 51.79996552 111.19818726 51.7991333 112.30102539 C51.66358306 151.54336334 35.3326497 186.68475031 7.63891602 214.27270508 C-6.91969048 228.31740468 -24.60468504 238.35124878 -43.57421875 245.1171875 C-44.62867188 245.49617188 -45.683125 245.87515625 -46.76953125 246.265625 C-61.37249156 251.13327844 -75.54392259 252.38923413 -90.82421875 252.3671875 C-91.49909332 252.36650269 -92.1739679 252.36581787 -92.86929321 252.3651123 C-100.01729782 252.341223 -107.01695118 252.08738884 -114.125 251.32421875 C-119.07707993 250.94856302 -122.07514225 250.96219747 -125.9699707 254.12792969 C-126.47874756 254.59875977 -126.98752441 255.06958984 -127.51171875 255.5546875 C-128.75001177 256.57376118 -129.99250447 257.58774487 -131.23828125 258.59765625 C-132.25003418 259.43756104 -132.25003418 259.43756104 -133.28222656 260.29443359 C-137.8076981 263.89340787 -142.62146996 267.09691872 -147.38671875 270.3671875 C-149.28959883 271.68412122 -151.19195738 273.00180887 -153.09375 274.3203125 C-154.00318359 274.94703857 -154.91261719 275.57376465 -155.84960938 276.21948242 C-157.69874678 277.50741656 -159.53571832 278.81296079 -161.36132812 280.1340332 C-162.24240234 280.76913818 -163.12347656 281.40424316 -164.03125 282.05859375 C-164.81346924 282.63037354 -165.59568848 283.20215332 -166.40161133 283.79125977 C-169.6383747 285.76663474 -171.90804534 285.92374565 -175.57421875 285.1171875 C-178.01171875 283.5546875 -178.01171875 283.5546875 -179.57421875 281.1171875 C-180.11535332 274.92594168 -178.5931803 269.52842147 -176.94921875 263.58984375 C-176.68286621 262.60092636 -176.41651367 261.61200897 -176.14208984 260.59312439 C-175.29432929 257.45302389 -174.43447138 254.31638605 -173.57421875 251.1796875 C-172.99529052 249.04383735 -172.41715678 246.90777168 -171.83984375 244.77148438 C-170.42715869 239.5508548 -169.00454225 234.33301046 -167.57421875 229.1171875 C-168.34677002 228.82529541 -169.11932129 228.53340332 -169.9152832 228.23266602 C-175.18030813 226.02387905 -179.27539706 221.80106303 -183.57421875 218.1171875 C-184.41597656 217.41207031 -185.25773437 216.70695313 -186.125 215.98046875 C-212.59771621 193.13877901 -229.59426937 158.02963419 -232.42919922 123.33203125 C-234.72271062 88.30385708 -226.33136839 53.16230769 -204.57421875 25.1171875 C-203.8678125 24.19035156 -203.16140625 23.26351562 -202.43359375 22.30859375 C-179.20540101 -7.14442042 -145.68721086 -26.58873958 -108.27441406 -31.1640625 C-69.50466425 -35.38964831 -30.14495584 -25.23056808 0 0 Z M-172.57421875 13.1171875 C-173.51523438 13.89578125 -174.45625 14.674375 -175.42578125 15.4765625 C-199.90306544 36.57529197 -214.64045642 68.19280606 -217.57421875 100.1171875 C-219.88149284 134.17121549 -209.02192839 167.46173805 -186.93359375 193.47265625 C-179.29730233 202.03187693 -171.37971313 209.08878738 -162.0546875 215.70703125 C-161.47380371 216.11937012 -160.89291992 216.53170898 -160.29443359 216.95654297 C-158.64335436 218.07054108 -156.91546956 219.06805065 -155.1875 220.05859375 C-152.57421875 222.1171875 -152.57421875 222.1171875 -151.82128906 224.86254883 C-151.55204332 228.40930271 -152.02270076 230.84292259 -153.0078125 234.25 C-153.32685547 235.38566406 -153.64589844 236.52132812 -153.97460938 237.69140625 C-154.31685547 238.86316406 -154.65910156 240.03492188 -155.01171875 241.2421875 C-155.68150235 243.57686177 -156.34705552 245.91275499 -157.0078125 248.25 C-157.30743896 249.28012207 -157.60706543 250.31024414 -157.91577148 251.37158203 C-158.72968952 254.29489643 -158.72968952 254.29489643 -158.57421875 258.1171875 C-153.34448938 256.47444945 -149.35541692 253.2159727 -145.01171875 249.9921875 C-143.39507857 248.81955757 -141.77789032 247.64768287 -140.16015625 246.4765625 C-137.44772764 244.50206585 -134.76458584 242.50090755 -132.11328125 240.4453125 C-127.23588678 236.8352725 -123.9624556 234.55896464 -117.76171875 235.0546875 C-116.02594919 235.37493026 -114.29659632 235.73135475 -112.57421875 236.1171875 C-78.97982436 241.50477773 -45.25435413 234.06488298 -17.25390625 214.8828125 C-3.51499847 204.82336651 8.45287253 192.59399703 17.42578125 178.1171875 C17.95042969 177.35019531 18.47507812 176.58320313 19.015625 175.79296875 C35.58397003 150.61084221 40.76543773 115.50925199 34.97216797 86.26806641 C27.12118033 51.50672941 7.61714886 21.89874616 -22.546875 2.57421875 C-69.48966903 -26.58669512 -130.33733928 -22.89173387 -172.57421875 13.1171875 Z " fill="#06693a" transform="translate(412.57421875,37.8828125)"/>
<path d="M0 0 C4.07422265 1.98122086 7.93043993 4.29379572 11.8125 6.625 C12.9618548 7.3037758 14.11193451 7.98132545 15.26269531 8.65771484 C17.65332973 10.06405054 20.0407655 11.47560616 22.42626953 12.890625 C26.92748429 15.55475564 31.46377449 18.15715509 36.00048828 20.76025391 C45.50416376 26.21397842 54.98339606 31.71080444 64.4375 37.25 C65.36143555 37.78705566 66.28537109 38.32411133 67.23730469 38.87744141 C68.08583008 39.37679199 68.93435547 39.87614258 69.80859375 40.390625 C70.54907959 40.82407227 71.28956543 41.25751953 72.05249023 41.70410156 C74.02503226 43.01665679 75.47221656 44.18960477 77 46 C77.32762793 49.05364844 77.47158446 51.90789443 77.48339844 54.96606445 C77.49829315 55.88345398 77.51318787 56.80084351 77.52853394 57.74603271 C77.57239873 60.78518389 77.59280342 63.82386536 77.609375 66.86328125 C77.62662985 68.9745434 77.64390305 71.0858054 77.66119385 73.19706726 C77.69272397 77.62643628 77.71025149 82.05564195 77.72070312 86.48510742 C77.73715677 92.15877185 77.8092275 97.83027575 77.89461899 103.50326252 C77.95051995 107.8656594 77.96611572 112.22753667 77.97071075 116.59026146 C77.97978808 118.68152872 78.00386785 120.77278697 78.0432663 122.86370277 C78.32916712 139.20362174 78.32916712 139.20362174 75.1309967 143.52597046 C72.78986877 145.12219753 70.67146587 146.08242998 68 147 C67.000896 147.60585937 66.00179199 148.21171875 64.97241211 148.8359375 C64.08303955 149.34382812 63.19366699 149.85171875 62.27734375 150.375 C61.25648682 150.96055664 60.23562988 151.54611328 59.18383789 152.14941406 C58.11254639 152.76010742 57.04125488 153.37080078 55.9375 154 C53.62209585 155.32760599 51.30700072 156.65574005 48.9921875 157.984375 C48.40826736 158.31910828 47.82434723 158.65384155 47.22273254 158.99871826 C41.31812411 162.38533895 35.43960374 165.81596131 29.5625 169.25 C28.58087891 169.82057129 27.59925781 170.39114258 26.58789062 170.97900391 C21.87491888 173.72036673 17.18175407 176.48693817 12.5234375 179.3203125 C11.66290771 179.8369043 10.80237793 180.35349609 9.91577148 180.88574219 C8.31913547 181.84520231 6.72944833 182.81637109 5.14868164 183.80175781 C4.43832764 184.22553711 3.72797363 184.64931641 2.99609375 185.0859375 C2.08621704 185.6435376 2.08621704 185.6435376 1.15795898 186.21240234 C-3.04990401 187.74816046 -6.77144372 187.49050993 -10.89233398 185.84521484 C-12.30494507 185.03624756 -12.30494507 185.03624756 -13.74609375 184.2109375 C-14.81802979 183.60636719 -15.88996582 183.00179687 -16.99438477 182.37890625 C-18.69872681 181.38697266 -18.69872681 181.38697266 -20.4375 180.375 C-21.64246709 179.68760748 -22.8481267 179.00142762 -24.05444336 178.31640625 C-27.12927033 176.56469871 -30.19296038 174.79455407 -33.25231934 173.01599121 C-34.89516827 172.06094255 -36.53980942 171.10897872 -38.18457031 170.15722656 C-43.09572869 167.31375666 -47.99592906 164.45256942 -52.88671875 161.57421875 C-57.30679268 158.97797937 -61.74965984 156.42585425 -66.20703125 153.89453125 C-67.41470211 153.20650297 -68.62230363 152.51835296 -69.82983398 151.83007812 C-72.1497078 150.50781312 -74.4738246 149.1942203 -76.80102539 147.88476562 C-77.84379639 147.28986328 -78.88656738 146.69496094 -79.9609375 146.08203125 C-80.88696777 145.55843018 -81.81299805 145.0348291 -82.76708984 144.49536133 C-85 143 -85 143 -87 140 C-87.22610088 137.01264357 -87.33527973 134.1157098 -87.35400391 131.12573242 C-87.3671463 130.21809647 -87.3802887 129.31046051 -87.39382935 128.37532043 C-87.4332829 125.3686999 -87.45661578 122.36227898 -87.4765625 119.35546875 C-87.48471355 118.32864801 -87.49286461 117.30182728 -87.50126266 116.24389076 C-87.54297703 110.80998158 -87.57158426 105.37617333 -87.59033203 99.94213867 C-87.61247204 94.32923988 -87.68128169 88.71792465 -87.76067543 83.10558605 C-87.8129605 78.7895462 -87.82971102 74.47388524 -87.83689499 70.15755653 C-87.84663818 68.0886292 -87.86989986 66.01971943 -87.90697098 63.9511013 C-87.95567212 61.05360704 -87.95384729 58.16022926 -87.93994141 55.26245117 C-87.96556152 54.40976654 -87.99118164 53.55708191 -88.01757812 52.67855835 C-87.95385534 49.03145679 -87.82728393 46.87507457 -85.25911236 44.15854454 C-83.23263035 42.61629809 -81.2008551 41.27804635 -79 40 C-78.03199463 39.40348633 -77.06398926 38.80697266 -76.06665039 38.19238281 C-75.16938232 37.70092773 -74.27211426 37.20947266 -73.34765625 36.703125 C-72.33324463 36.14246338 -71.31883301 35.58180176 -70.27368164 35.00415039 C-69.2139917 34.42528076 -68.15430176 33.84641113 -67.0625 33.25 C-64.81173247 32.00529314 -62.56173292 30.75919657 -60.3125 29.51171875 C-59.22453125 28.9089209 -58.1365625 28.30612305 -57.015625 27.68505859 C-53.16411375 25.5329269 -49.35510384 23.31642311 -45.5625 21.0625 C-38.72345553 17.00370963 -31.85196105 13.0028104 -24.96481323 9.02633667 C-23.21959591 8.01853428 -21.47514702 7.00940157 -19.73071289 6.00024414 C-18.65813232 5.38141357 -17.58555176 4.76258301 -16.48046875 4.125 C-15.52035889 3.57070313 -14.56024902 3.01640625 -13.57104492 2.4453125 C-8.61685433 -0.33968496 -5.64203323 -1.8400445 0 0 Z M-14.125 20.0625 C-15.64364473 20.97933462 -17.16324128 21.8945938 -18.68359375 22.80859375 C-19.5226123 23.31503418 -20.36163086 23.82147461 -21.22607422 24.34326172 C-26.51035213 27.49931786 -31.85239391 30.55593739 -37.1875 33.625 C-38.30511719 34.26904785 -39.42273438 34.9130957 -40.57421875 35.57666016 C-48.3725013 40.06919911 -56.17812962 44.54864468 -64 49 C-60.52729316 52.93392572 -56.51692782 55.2717281 -52 57.8125 C-51.2884375 58.23208984 -50.576875 58.65167969 -49.84375 59.08398438 C-49.1528125 59.47521484 -48.461875 59.86644531 -47.75 60.26953125 C-46.81414062 60.80477417 -46.81414062 60.80477417 -45.859375 61.35083008 C-43.44884301 62.19242731 -42.38004657 61.88303013 -40 61 C-38.44987272 60.23030672 -36.92542028 59.40791248 -35.421875 58.55078125 C-34.51969238 58.03902344 -33.61750977 57.52726562 -32.68798828 57 C-31.71845215 56.443125 -30.74891602 55.88625 -29.75 55.3125 C-28.74308105 54.73886719 -27.73616211 54.16523437 -26.69873047 53.57421875 C-18.15251066 48.69292862 -9.64683535 43.74137371 -1.15917969 38.7590332 C4.51920919 35.42808286 10.22774591 32.16571781 16 29 C16 28.34 16 27.68 16 27 C13.09185591 24.85986956 9.88220353 23.16612945 6.75 21.375 C5.87730469 20.859375 5.00460937 20.34375 4.10546875 19.8125 C3.26113281 19.32523438 2.41679687 18.83796875 1.546875 18.3359375 C0.77182617 17.88782715 -0.00322266 17.4397168 -0.80175781 16.97802734 C-6.16985858 14.58968753 -9.64683613 17.29037951 -14.125 20.0625 Z M26.1796875 39.5703125 C25.18066406 40.13049072 24.18164062 40.69066895 23.15234375 41.26782227 C22.07082031 41.88069092 20.98929688 42.49355957 19.875 43.125 C18.76511719 43.75011475 17.65523437 44.37522949 16.51171875 45.01928711 C7.64638522 50.0285762 -1.16306036 55.13202643 -9.94189453 60.29150391 C-15.58570681 63.60752576 -21.26017665 66.85284068 -27 70 C-27 70.66 -27 71.32 -27 72 C-23.61794651 74.04459897 -20.21744543 76.05629449 -16.8125 78.0625 C-15.85279297 78.64322266 -14.89308594 79.22394531 -13.90429688 79.82226562 C-12.97294922 80.36689453 -12.04160156 80.91152344 -11.08203125 81.47265625 C-10.22843018 81.98062744 -9.3748291 82.48859863 -8.49536133 83.01196289 C-5.43427891 84.22399699 -4.10043689 84.02667308 -1 83 C1.41150347 81.85251119 1.41150347 81.85251119 3.82421875 80.3671875 C4.75838623 79.81522705 5.69255371 79.2632666 6.6550293 78.69458008 C7.65574463 78.09411865 8.65645996 77.49365723 9.6875 76.875 C11.83287993 75.6047027 13.97873081 74.33520051 16.125 73.06640625 C17.24390625 72.4027002 18.3628125 71.73899414 19.515625 71.05517578 C25.37615575 67.58918379 31.28485164 64.20605368 37.1875 60.8125 C39.34791543 59.56946077 41.50808895 58.32600095 43.66796875 57.08203125 C44.57828857 56.55843018 45.4886084 56.0348291 46.42651367 55.49536133 C47.27576416 55.00189209 48.12501465 54.50842285 49 54 C49.93497314 53.48268311 50.86994629 52.96536621 51.83325195 52.43237305 C52.54827881 51.95968994 53.26330566 51.48700684 54 51 C54 50.34 54 49.68 54 49 C50.54565686 46.99304709 47.0858937 44.99563221 43.625 43 C42.64015625 42.42765625 41.6553125 41.8553125 40.640625 41.265625 C39.69960938 40.72421875 38.75859375 40.1828125 37.7890625 39.625 C36.91975098 39.12226562 36.05043945 38.61953125 35.15478516 38.1015625 C31.34678989 36.15485112 29.72541721 37.57547604 26.1796875 39.5703125 Z M-73 63 C-73.3954405 71.82248488 -73.69665474 80.64188845 -73.88080692 89.47132683 C-73.96924372 93.57262677 -74.08889127 97.66783452 -74.2824707 101.765625 C-75.83931378 118.68178805 -75.83931378 118.68178805 -71.48602295 134.37536621 C-67.64003801 138.01542499 -63.21053946 139.72462802 -58.20993042 141.26226807 C-54.89321411 142.36947376 -52.22333281 144.06582143 -49.25 145.90625 C-47.1670337 147.10480477 -45.08370128 148.30272347 -43 149.5 C-34.57149334 154.34896532 -26.16023135 159.22328937 -17.81054688 164.20703125 C-15.07839746 166.14271483 -15.07839746 166.14271483 -12 167 C-11.69799439 158.142433 -11.46743106 149.2866511 -11.32644176 140.42504883 C-11.25874778 136.30934131 -11.16707084 132.1971684 -11.01928711 128.08349609 C-10.87738924 124.10850783 -10.80018953 120.13690253 -10.76659584 116.15957642 C-10.74268142 114.64729506 -10.69596732 113.13518754 -10.62550926 111.62435913 C-10.41223172 106.85887918 -10.45985105 102.58127684 -12 98 C-15.9289108 94.24335044 -20.03026863 92.22896786 -25 90 C-26.25962225 89.2856281 -27.51134389 88.55654317 -28.74462891 87.79760742 C-29.72866699 87.23920166 -30.71270508 86.6807959 -31.7265625 86.10546875 C-33.41495239 85.14447266 -33.41495239 85.14447266 -35.13745117 84.1640625 C-36.2999433 83.50516573 -37.46246001 82.84631232 -38.625 82.1875 C-41.07221334 80.79662445 -43.51857155 79.40424876 -45.96484375 78.01171875 C-46.56406143 77.6708725 -47.16327911 77.33002625 -47.78065491 76.97885132 C-54.07248257 73.39656593 -60.3324894 69.75971165 -66.57861328 66.09838867 C-69.61194547 63.97128695 -69.61194547 63.97128695 -73 63 Z M57.71484375 65.3515625 C56.80331543 65.86630127 55.89178711 66.38104004 54.95263672 66.91137695 C53.9576416 67.47687256 52.96264648 68.04236816 51.9375 68.625 C50.91414551 69.20531982 49.89079102 69.78563965 48.83642578 70.38354492 C41.32604323 74.65322427 33.84130329 78.96623842 26.375 83.3125 C25.43003662 83.86180176 24.48507324 84.41110352 23.51147461 84.97705078 C21.69855477 86.03625998 19.89524517 87.11216625 18.10403442 88.20768738 C15 90 15 90 11.64317322 91.52262878 C4.69456387 94.90162381 4.69456387 94.90162381 0.86029053 101.38032532 C0.49252749 105.60574365 0.53328201 109.64673487 0.73046875 113.875 C0.75475008 115.41048358 0.77323879 116.94606867 0.78620911 118.48168945 C0.8355919 122.50237617 0.96300523 126.51684719 1.10736084 130.53509521 C1.24093797 134.64363487 1.29984228 138.75319102 1.36523438 142.86328125 C1.50419771 150.91169107 1.72570188 158.95507025 2 167 C27.84756655 153.12647087 27.84756655 153.12647087 53.04441833 138.12692261 C55 137 55 137 57.07615662 136.24081421 C59.67239708 135.12463046 61.15218216 134.1609054 63 132 C64.16420393 126.82316118 63.93082189 121.68585961 63.78125 116.41796875 C63.76631992 114.87814781 63.7549365 113.33828874 63.74694824 111.79841614 C63.71647216 107.75483374 63.63795569 103.71356829 63.54931641 99.67089844 C63.46732266 95.54198554 63.43090836 91.41269633 63.390625 87.28320312 C63.30495053 79.1877414 63.16850593 71.09415928 63 63 C61.07655268 63 59.33984187 64.43269668 57.71484375 65.3515625 Z " fill="#06693a" transform="translate(327,55)"/>
</svg>
