<?xml version="1.0" encoding="UTF-8"?>
<svg version="1.1" xmlns="http://www.w3.org/2000/svg" width="512" height="512">
<path d="M0 0 C12.70232874 11.3681673 20.79473384 25.43373452 24.37451172 42.14794922 C24.55755859 42.99357422 24.74060547 43.83919922 24.92919922 44.71044922 C28.16890449 69.71870043 22.84803024 92.81719482 14.37451172 116.14794922 C15.29876953 116.40576172 16.22302734 116.66357422 17.17529297 116.92919922 C21.99262405 118.76437296 23.879883 121.76211229 26.37451172 126.14794922 C31.21774682 136.95906577 30.47682639 149.20328327 26.37451172 160.14794922 C23.13576822 166.23194401 18.58285112 170.21587928 12.37451172 173.14794922 C9.37451172 173.96044922 9.37451172 173.96044922 7.37451172 174.14794922 C7.33326172 175.30294922 7.29201172 176.45794922 7.24951172 177.64794922 C5.03110947 197.24383576 -7.77624794 217.66901015 -22.62548828 230.14794922 C-23.28548828 230.14794922 -23.94548828 230.14794922 -24.62548828 230.14794922 C-24.05747742 233.25511472 -23.46813555 236.35789654 -22.87548828 239.46044922 C-22.71822266 240.3221875 -22.56095703 241.18392578 -22.39892578 242.07177734 C-21.87467793 244.78375182 -21.26353819 247.46045091 -20.62548828 250.14794922 C-20.41518478 251.07166824 -20.20488129 251.99538727 -19.98820496 252.94709778 C-18.43131312 258.55167722 -18.43131312 258.55167722 -14.52157593 262.61903381 C-11.82073988 263.68431823 -9.17057423 264.4285752 -6.34814453 265.10888672 C-5.34464462 265.39220856 -4.34114471 265.6755304 -3.30723572 265.96743774 C-0.11090449 266.86274156 3.09750448 267.69552865 6.31201172 268.52294922 C9.51913442 269.38161725 12.72184612 270.25320225 15.92054749 271.14273071 C17.9072814 271.69176441 19.89948043 272.22149322 21.89720154 272.72909546 C27.27127658 274.17617854 30.96752679 275.44608514 34.37451172 280.14794922 C34.37451172 281.46794922 34.37451172 282.78794922 34.37451172 284.14794922 C35.21111328 284.11314453 36.04771484 284.07833984 36.90966797 284.04248047 C61.4994582 283.47062488 83.97655397 292.89892351 101.92480469 309.70703125 C119.43009434 327.1061925 129.33880375 350.90231838 129.53225708 375.54544067 C129.53337494 376.31298676 129.5344928 377.08053284 129.53564453 377.87133789 C129.54060944 378.70328171 129.54557434 379.53522552 129.5506897 380.39237976 C129.56517715 383.11690117 129.57208737 385.84136455 129.57763672 388.56591797 C129.5804641 389.501141 129.58329147 390.43636402 129.58620453 391.39992714 C129.60113539 396.33994449 129.61040592 401.27993304 129.61474609 406.2199707 C129.62025085 411.31768529 129.64433824 416.41513549 129.67271805 421.51276684 C129.69133475 425.44099202 129.6965493 429.36915302 129.69808197 433.29741859 C129.70110646 435.17728447 129.7091281 437.05714927 129.72226715 438.93697166 C129.73932259 441.56243607 129.73744981 444.18724681 129.73095703 446.81274414 C129.74017181 447.58636292 129.7493866 448.35998169 129.75888062 449.15704346 C129.72412596 453.64356732 129.24417603 456.62976266 126.37451172 460.14794922 C122.99992951 461.27280995 120.45567798 461.27564012 116.89732552 461.27937698 C116.23351948 461.28142962 115.56971345 461.28348225 114.88579208 461.28559709 C112.64569561 461.29128341 110.40566031 461.28980784 108.16555786 461.28839111 C106.54960969 461.29097381 104.93366216 461.2939867 103.31771553 461.29739451 C98.86472651 461.30547888 94.4117536 461.30725488 89.95875812 461.30799198 C85.16111997 461.30984002 80.36349023 461.31738603 75.56585693 461.3241272 C65.07016697 461.3377207 54.57448082 461.34373667 44.07878351 461.34813786 C37.52893015 461.35089826 30.97907828 461.35513521 24.42922592 461.35964203 C6.30475774 461.37183545 -11.81970925 461.38213499 -29.94418144 461.38551712 C-31.6848421 461.38584647 -31.6848421 461.38584647 -33.46066762 461.38618247 C-34.62392563 461.38640075 -35.78718365 461.38661903 -36.98569191 461.38684392 C-39.34300033 461.38728739 -41.70030876 461.38773395 -44.05761719 461.38818359 C-45.22693012 461.38840502 -46.39624306 461.38862645 -47.60098971 461.38885459 C-66.55729448 461.39280445 -85.51356084 461.41026386 -104.46985076 461.43354312 C-123.91861484 461.45723498 -143.36735964 461.46971796 -162.81613839 461.47088504 C-173.74135753 461.47180296 -184.66652663 461.47758471 -195.59173203 461.49570465 C-204.89286614 461.51107637 -214.19393475 461.51624343 -223.49507914 461.50796655 C-228.24299353 461.50404978 -232.99077588 461.50503951 -237.73867416 461.5190239 C-242.08245301 461.53170135 -246.42599978 461.53061985 -250.76977803 461.51843318 C-252.34379332 461.51646547 -253.91782471 461.51960384 -255.49181734 461.52827755 C-257.62703571 461.5393019 -259.76142512 461.5319313 -261.8966198 461.51988602 C-263.677537 461.52078165 -263.677537 461.52078165 -265.49443233 461.52169538 C-268.980073 461.10562335 -270.86485007 460.29291629 -273.62548828 458.14794922 C-274.85698309 454.45346479 -274.78101048 451.03059168 -274.78662109 447.18261719 C-274.791586 446.37067902 -274.7965509 445.55874084 -274.80166626 444.72219849 C-274.8162991 442.02816926 -274.82309701 439.33419922 -274.82861328 436.64013672 C-274.83437035 434.75700887 -274.84012801 432.87388102 -274.84588623 430.99075317 C-274.85640387 427.03126758 -274.86223939 423.07180229 -274.86572266 419.11230469 C-274.87116388 414.08400524 -274.89509365 409.05598258 -274.92369461 404.02776909 C-274.94250943 400.12907182 -274.94753682 396.23043816 -274.94905853 392.33169937 C-274.95205089 390.48128903 -274.95996091 388.63087885 -274.97324371 386.78051376 C-275.15240577 359.86796664 -269.53358712 336.12073301 -251.62548828 315.14794922 C-250.67029297 313.90464844 -250.67029297 313.90464844 -249.69580078 312.63623047 C-236.26489858 296.4938065 -214.14646732 286.69944183 -193.62548828 284.14794922 C-189.27615972 283.94843873 -184.97420065 283.94994714 -180.62548828 284.14794922 C-180.54298828 283.21982422 -180.46048828 282.29169922 -180.37548828 281.33544922 C-179.48977325 277.57116032 -178.81256947 277.12787698 -175.62548828 275.14794922 C-173.42504883 274.32298279 -173.42504883 274.32298279 -171.01220703 273.6809082 C-170.10446533 273.43312119 -169.19672363 273.18533417 -168.26147461 272.93003845 C-167.28847412 272.67065994 -166.31547363 272.41128143 -165.31298828 272.14404297 C-163.24733222 271.56332021 -161.18224395 270.9805747 -159.11767578 270.39599609 C-155.87010946 269.48387705 -152.62121212 268.5843143 -149.36083984 267.71899414 C-146.20821124 266.87694183 -143.07378117 265.9839939 -139.93798828 265.08154297 C-138.96498779 264.83633408 -137.9919873 264.59112518 -136.98950195 264.33848572 C-131.71863354 262.77499608 -131.71863354 262.77499608 -128.13641357 258.8072052 C-127.09909941 256.26818435 -126.30031447 253.80430257 -125.62548828 251.14794922 C-125.28001953 249.89626953 -124.93455078 248.64458984 -124.57861328 247.35498047 C-124.23056641 245.6746875 -124.23056641 245.6746875 -123.87548828 243.96044922 C-123.51197266 242.26855469 -123.51197266 242.26855469 -123.14111328 240.54248047 C-122.59380344 236.93935735 -122.26896921 233.78186647 -122.62548828 230.14794922 C-124.22771207 228.02784929 -124.22771207 228.02784929 -126.56298828 226.46044922 C-141.54538804 214.17863876 -149.28257279 195.58446066 -153.62548828 177.14794922 C-153.62548828 176.15794922 -153.62548828 175.16794922 -153.62548828 174.14794922 C-154.46080078 173.96232422 -154.46080078 173.96232422 -155.31298828 173.77294922 C-163.02396541 171.68890135 -167.56293744 167.6598199 -172.01220703 161.10498047 C-176.55241892 152.10420954 -175.96424016 139.51078116 -173.93017578 129.84326172 C-171.96339137 124.40568129 -168.9709215 120.90082336 -164.62548828 117.14794922 C-165.99426277 113.61759521 -167.51597929 110.17586959 -169.08764648 106.73168945 C-179.00929371 84.76289636 -183.74275549 60.43443189 -175.62548828 37.14794922 C-171.99940781 27.68334665 -166.87965488 20.18071396 -159.62548828 13.14794922 C-159.06216797 12.57560547 -158.49884766 12.00326172 -157.91845703 11.41357422 C-148.4306893 2.45675212 -135.59489084 -1.24178082 -122.93798828 -2.53955078 C-116.96420708 -3.3879399 -114.69158387 -5.17165837 -110.82080078 -9.62548828 C-82.22445282 -38.6289017 -27.07464412 -23.36232146 0 0 Z M-109.02050781 9.74145508 C-111.81062009 12.18651696 -115.56174528 11.83689204 -119.12548828 12.08544922 C-133.60483724 13.41602291 -145.21402889 18.21607214 -154.77001953 29.52685547 C-165.58385558 44.80282177 -165.99485917 60.87046307 -162.98095703 78.66479492 C-161.90049933 84.47413086 -160.25562858 89.83426476 -157.62548828 95.14794922 C-157.29548828 95.14794922 -156.96548828 95.14794922 -156.62548828 95.14794922 C-156.41794922 94.03419922 -156.21041016 92.92044922 -155.99658203 91.77294922 C-151.80288012 70.50639819 -143.03594338 50.90139322 -124.56298828 38.14794922 C-120.95501952 35.74789997 -117.89799186 35.66964957 -113.62548828 36.14794922 C-110.62548828 38.05419922 -110.62548828 38.05419922 -107.62548828 40.64794922 C-93.26596381 52.40978129 -75.27647044 60.15497456 -56.52392578 60.32373047 C-55.1319839 60.34694848 -53.74005681 60.37106659 -52.34814453 60.39599609 C-50.18284461 60.43087308 -48.01808378 60.46033922 -45.85253906 60.47387695 C-31.78875811 60.57868614 -20.03215797 63.23578951 -9.50048828 73.14794922 C-3.17241415 79.85954299 1.07425989 87.57346316 4.37451172 96.14794922 C6.1311812 92.96160933 7.07190469 89.86381769 7.93701172 86.33544922 C8.18580078 85.33900391 8.43458984 84.34255859 8.69091797 83.31591797 C10.30613316 75.83054928 10.5880685 68.59074831 10.62451172 60.96044922 C10.64513672 59.90019531 10.66576172 58.83994141 10.68701172 57.74755859 C10.7715742 40.4016802 4.46973359 25.58018965 -7.62548828 13.14794922 C-23.60145027 -1.36708409 -47.38519606 -10.33036581 -68.91455078 -10.13330078 C-85.10912004 -8.9059229 -98.25287714 -2.55821685 -109.02050781 9.74145508 Z M-124.46923828 56.96826172 C-137.2064577 69.84392918 -143.64271382 89.45548059 -143.62304688 107.37207031 C-143.61740723 108.19916504 -143.61176758 109.02625977 -143.60595703 109.87841797 C-143.60047852 110.73274414 -143.595 111.58707031 -143.58935547 112.46728516 C-143.57199864 114.19075406 -143.54300809 115.91415146 -143.50146484 117.63720703 C-143.4835791 118.83168457 -143.4835791 118.83168457 -143.46533203 120.05029297 C-143.44849365 120.76693115 -143.43165527 121.48356934 -143.41430664 122.22192383 C-143.62548828 124.14794922 -143.62548828 124.14794922 -145.62548828 127.14794922 C-148.39084652 128.00482079 -151.15869927 128.54206593 -153.99658203 129.10888672 C-156.7487592 129.96205796 -156.7487592 129.96205796 -158.44580078 132.25341797 C-159.93266227 135.90164433 -160.10259622 139.20747158 -160.06298828 143.08544922 C-160.08296875 143.77574219 -160.10294922 144.46603516 -160.12353516 145.17724609 C-160.1186711 150.30882213 -158.8641572 153.22032709 -155.62548828 157.14794922 C-152.39169093 159.16008979 -149.55947953 160.16555155 -145.87548828 161.14794922 C-142.62548828 162.14794922 -142.62548828 162.14794922 -140.62548828 165.14794922 C-140.13118331 167.42803802 -139.70274267 169.722681 -139.31298828 172.02294922 C-135.66527799 191.70295377 -126.15081438 209.45976153 -109.70361328 221.17529297 C-93.35345663 231.6535025 -75.10499756 234.22496189 -56.33251953 230.11669922 C-38.81432955 225.53871069 -25.81435407 215.02660977 -16.43798828 199.64794922 C-9.97961063 188.18476623 -6.10849535 175.18818377 -4.62548828 162.14794922 C-3.90103516 161.98939453 -3.17658203 161.83083984 -2.43017578 161.66748047 C3.75036464 160.17591005 8.05580971 158.90959502 12.37451172 154.14794922 C15.1084656 148.92858272 14.94812398 142.90975596 14.37451172 137.14794922 C13.04243614 133.69666249 11.9645509 131.7379884 9.37451172 129.14794922 C7.13438547 128.80630834 4.92570182 128.70662295 2.66357422 128.58935547 C-0.33718509 128.01071076 -1.55548155 127.4334881 -3.62548828 125.14794922 C-4.28401435 122.29532062 -4.72857095 119.66250538 -5.06298828 116.77294922 C-7.27440795 101.28681707 -12.61386997 88.21920283 -25.31689453 78.52294922 C-30.19895916 75.61518822 -34.73859903 74.90358451 -40.35986328 74.87451172 C-41.64779785 74.85678711 -42.93573242 74.8390625 -44.26269531 74.82080078 C-44.93480042 74.81375122 -45.60690552 74.80670166 -46.29937744 74.79943848 C-71.19593814 74.48178134 -95.32076649 69.46638272 -115.13720703 53.21435547 C-118.94524157 50.48576379 -121.64875096 54.42369164 -124.46923828 56.96826172 Z M-107.62548828 239.14794922 C-107.75600586 239.73697021 -107.88652344 240.32599121 -108.02099609 240.93286133 C-108.62948043 243.65265841 -109.25239112 246.36896423 -109.87548828 249.08544922 C-110.08044922 250.01164062 -110.28541016 250.93783203 -110.49658203 251.89208984 C-111.55134787 256.44676052 -112.68423293 260.44124096 -114.85986328 264.58935547 C-117.46800717 270.20441929 -116.52895816 275.17434901 -115.62548828 281.14794922 C-115.44041001 282.49198391 -115.25689515 283.83623455 -115.07470703 285.18066406 C-114.57076458 288.82463159 -114.02786867 292.46153642 -113.46875 296.09741211 C-113.12030727 298.36922895 -112.78078068 300.64226736 -112.44189453 302.91552734 C-112.22236632 304.36157051 -112.00233377 305.80753723 -111.78173828 307.25341797 C-111.48493164 309.20477661 -111.48493164 309.20477661 -111.18212891 311.19555664 C-110.93589158 314.02549777 -110.93589158 314.02549777 -109.62548828 315.14794922 C-85.03511749 318.53035966 -60.23883416 317.73832726 -35.62548828 315.14794922 C-34.76432028 309.58051335 -33.91004899 304.01207806 -33.06201172 298.44262695 C-32.77286702 296.55008756 -32.48187547 294.65782933 -32.18896484 292.76586914 C-31.7670496 290.03848844 -31.35189666 287.31014884 -30.93798828 284.58154297 C-30.80674561 283.74272079 -30.67550293 282.90389862 -30.5402832 282.03965759 C-29.50639168 275.15159799 -28.74093982 269.21199154 -31.87548828 262.77294922 C-35.27340811 255.16393217 -36.9043855 247.26309306 -38.62548828 239.14794922 C-39.60646484 239.48568359 -40.58744141 239.82341797 -41.59814453 240.17138672 C-64.67888814 247.89766564 -84.82926546 246.9688072 -107.62548828 239.14794922 Z M-147.25048828 281.96044922 C-149.14927734 282.49508789 -149.14927734 282.49508789 -151.08642578 283.04052734 C-152.28783203 283.39179688 -153.48923828 283.74306641 -154.72705078 284.10498047 C-155.83387207 284.42442627 -156.94069336 284.74387207 -158.08105469 285.07299805 C-158.92071777 285.42773193 -159.76038086 285.78246582 -160.62548828 286.14794922 C-162.01450447 289.20614234 -162.01450447 289.20614234 -160.27026367 292.29907227 C-159.59692674 293.5906885 -158.91385035 294.87725596 -158.22314453 296.15966797 C-157.49040651 297.57161332 -156.75799515 298.98372824 -156.02587891 300.39599609 C-154.86174245 302.61287424 -153.69256189 304.82685381 -152.51635742 307.03735352 C-151.38360036 309.17519593 -150.27133372 311.32279767 -149.16064453 313.47216797 C-148.63096825 314.44605721 -148.63096825 314.44605721 -148.09059143 315.43962097 C-145.63190255 320.22977305 -145.13081323 323.76271248 -145.62548828 329.14794922 C-147.52392578 331.97607422 -147.52392578 331.97607422 -150.00048828 334.39794922 C-154.04045722 338.28729005 -154.04045722 338.28729005 -156.62548828 343.14794922 C-156.00968776 345.10604561 -156.00968776 345.10604561 -154.65283203 346.95654297 C-154.17209229 347.69243652 -153.69135254 348.42833008 -153.19604492 349.18652344 C-152.65713623 349.97816895 -152.11822754 350.76981445 -151.56298828 351.58544922 C-150.4341319 353.30467974 -149.3065721 355.02476217 -148.18017578 356.74560547 C-147.29604004 358.08196045 -147.29604004 358.08196045 -146.39404297 359.4453125 C-143.57511168 363.75309403 -140.88327179 368.13714504 -138.18798828 372.52294922 C-137.10236669 374.28095684 -136.0164267 376.03876788 -134.93017578 377.79638672 C-134.38844727 378.67391602 -133.84671875 379.55144531 -133.28857422 380.45556641 C-131.02593549 384.11856992 -128.75852479 387.77860979 -126.49121094 391.4387207 C-121.18819313 399.99961518 -115.89531107 408.56657615 -110.62548828 417.14794922 C-109.5205468 413.7523488 -109.72309156 411.18632542 -110.25778198 407.67588806 C-110.42324524 406.56405655 -110.5887085 405.45222504 -110.75918579 404.30670166 C-110.94822479 403.09149841 -111.13726379 401.87629517 -111.33203125 400.62426758 C-111.52535034 399.34103104 -111.71866943 398.05779449 -111.91784668 396.735672 C-112.44800949 393.2181777 -112.98792909 389.70224365 -113.52974463 386.18652797 C-114.09513279 382.50785341 -114.65204281 378.8278954 -115.20999146 375.14808655 C-116.14808427 368.96941438 -117.09207875 362.79166753 -118.04003906 356.61450195 C-119.25706316 348.68383275 -120.46432787 340.75171028 -121.66851616 332.81908321 C-122.70360098 326.00098554 -123.74321662 319.1835799 -124.78353357 312.36627889 C-125.11789822 310.17383443 -125.45162996 307.98129431 -125.78527451 305.78874016 C-126.40688812 301.706055 -127.03321984 297.62410751 -127.66015625 293.54223633 C-127.84514679 292.32500885 -128.03013733 291.10778137 -128.22073364 289.85366821 C-128.477388 288.19015068 -128.477388 288.19015068 -128.73922729 286.49302673 C-128.96102315 285.04484763 -128.96102315 285.04484763 -129.18729973 283.56741238 C-129.5898222 281.01811379 -129.5898222 281.01811379 -130.62548828 278.14794922 C-136.32296786 278.14794922 -141.81550227 280.37060444 -147.25048828 281.96044922 Z M-15.62548828 278.14794922 C-19.93898801 304.2854969 -23.92591597 330.47289355 -27.89355469 356.66479492 C-28.82636059 362.81996946 -29.76660738 368.97398565 -30.70825768 375.12781239 C-31.43644795 379.89590294 -32.15907489 384.66482434 -32.88014603 389.4339962 C-33.2249007 391.70740855 -33.57180845 393.98049547 -33.92090988 396.2532444 C-34.40307483 399.3954228 -34.8773443 402.53869379 -35.34960938 405.68237305 C-35.49496124 406.61765839 -35.64031311 407.55294373 -35.79006958 408.51657104 C-35.91609558 409.36642075 -36.04212158 410.21627045 -36.17196655 411.09187317 C-36.28438375 411.83144666 -36.39680096 412.57102015 -36.51262474 413.33300495 C-36.7841581 415.24883017 -36.7841581 415.24883017 -35.62548828 417.14794922 C-27.90883929 404.84492668 -20.22430306 392.52412537 -12.62548828 380.14794922 C-5.0266735 367.77177307 2.65786273 355.45097176 10.37451172 343.14794922 C7.74975753 338.63062632 4.71953302 335.29166402 1.01904297 331.62451172 C-1.24917974 328.2087084 -0.9797653 326.21994164 -0.62548828 322.14794922 C0.35493194 319.29961395 1.69367057 316.69005485 3.09326172 314.02685547 C3.47059448 313.28209457 3.84792725 312.53733368 4.23669434 311.77000427 C5.43623599 309.40987538 6.65493995 307.06027947 7.87451172 304.71044922 C8.69481121 303.10498742 9.51383557 301.49887342 10.33154297 299.89208984 C12.33118829 295.96967485 14.34807082 292.05658342 16.37451172 288.14794922 C13.84622553 285.61966303 11.80474997 285.21251882 8.37841797 284.20263672 C7.18023437 283.84814453 5.98205078 283.49365234 4.74755859 283.12841797 C3.49007812 282.76361328 2.23259766 282.39880859 0.93701172 282.02294922 C-0.31660156 281.65041016 -1.57021484 281.27787109 -2.86181641 280.89404297 C-9.14327676 278.8917337 -9.14327676 278.8917337 -15.62548828 278.14794922 Z M-198.05908203 304.48388672 C-198.57599609 305.36302734 -199.09291016 306.24216797 -199.62548828 307.14794922 C-200.25583984 308.21271484 -200.88619141 309.27748047 -201.53564453 310.37451172 C-208.07263657 322.1397721 -210.05314909 333.80652538 -210.62548828 347.14794922 C-209.75408203 347.23431641 -208.88267578 347.32068359 -207.98486328 347.40966797 C-193.29147735 349.14297865 -182.66497128 353.52822386 -173.03564453 365.05029297 C-166.09355973 375.03085865 -164.38746617 387.30036552 -165.62548828 399.14794922 C-167.02792731 402.84916873 -167.02792731 402.84916873 -169.62548828 404.14794922 C-171.75209074 404.13648505 -173.87867116 404.04099307 -176.00048828 403.89794922 C-177.14259766 403.83091797 -178.28470703 403.76388672 -179.46142578 403.69482422 C-182.77168016 403.12268149 -184.28226549 402.51947181 -186.62548828 400.14794922 C-187.12548828 397.21044922 -187.12548828 397.21044922 -186.62548828 394.14794922 C-184.39342397 391.30014303 -183.0755583 390.29797256 -179.62548828 389.14794922 C-180.26369751 381.48943848 -183.12971125 374.64372625 -188.62548828 369.14794922 C-195.87463616 364.17779766 -201.66940338 361.28175853 -210.62548828 362.14794922 C-217.19399681 363.535483 -222.29149979 367.08392855 -226.62548828 372.14794922 C-231.1186029 379.15416184 -232.78865281 385.89675088 -231.62548828 394.14794922 C-230.83374727 397.24743534 -229.85077312 400.19413755 -228.62548828 403.14794922 C-227.38798828 402.90044922 -226.15048828 402.65294922 -224.87548828 402.39794922 C-221.69054833 402.00830231 -220.94720405 401.94687687 -218.12548828 403.71044922 C-216.21891287 406.80863426 -216.09236664 408.56841818 -216.62548828 412.14794922 C-220.34971827 416.69353507 -225.74784499 417.92889083 -231.37548828 418.58544922 C-235.33752847 418.05209765 -236.07877194 417.13602875 -238.62548828 414.14794922 C-244.72813683 403.29130374 -247.47857755 392.16070157 -244.93798828 379.80419922 C-241.47927431 367.4681194 -235.24319329 359.22641922 -224.62548828 352.14794922 C-224.18368082 350.28751928 -224.18368082 350.28751928 -224.25439453 348.14013672 C-224.23965088 347.32577148 -224.22490723 346.51140625 -224.2097168 345.67236328 C-224.20254639 344.79805664 -224.19537598 343.92375 -224.18798828 343.02294922 C-223.9269748 333.5169238 -222.2630402 325.26492114 -219.62548828 316.14794922 C-218.93895713 313.48581822 -218.28121751 310.81791397 -217.62548828 308.14794922 C-232.71334623 313.54809982 -244.37783918 327.28804222 -251.62548828 341.14794922 C-258.56361477 355.9794515 -259.92516247 370.1077011 -259.82080078 386.28466797 C-259.81785327 387.82230484 -259.8158172 389.35994372 -259.81469727 390.89758301 C-259.80429199 396.54356939 -259.77636974 402.18951257 -259.75048828 407.83544922 C-259.70923828 420.47857422 -259.66798828 433.12169922 -259.62548828 446.14794922 C-210.45548828 446.14794922 -161.28548828 446.14794922 -110.62548828 446.14794922 C-112.07011024 442.53639432 -113.36624723 439.72074865 -115.35595703 436.47216797 C-115.90364746 435.57457764 -116.45133789 434.6769873 -117.015625 433.75219727 C-117.60875488 432.78967041 -118.20188477 431.82714355 -118.81298828 430.83544922 C-119.43447754 429.82071533 -120.0559668 428.80598145 -120.69628906 427.76049805 C-125.70814733 419.59472295 -130.78251918 411.46824638 -135.87182617 403.35058594 C-141.21250876 394.8277954 -146.49141069 386.26796507 -151.75439453 377.69702148 C-154.97617105 372.45091128 -158.20406109 367.20894255 -161.45361328 361.97998047 C-162.05286621 361.01535889 -162.65211914 360.0507373 -163.26953125 359.05688477 C-164.39209036 357.25144873 -165.51603029 355.44687023 -166.64160156 353.64331055 C-167.13901855 352.84304443 -167.63643555 352.04277832 -168.14892578 351.21826172 C-168.58124512 350.52490723 -169.01356445 349.83155273 -169.45898438 349.1171875 C-172.63137362 343.76170578 -172.63137362 343.76170578 -172.59814453 340.29638672 C-171.30934034 336.12459485 -169.08806536 333.83201592 -166.06298828 330.77294922 C-165.54285156 330.22767578 -165.02271484 329.68240234 -164.48681641 329.12060547 C-163.21061919 327.7858671 -161.91950649 326.46541751 -160.62548828 325.14794922 C-162.3048178 319.33785512 -165.0175722 314.13926343 -167.75048828 308.77294922 C-168.21841797 307.84611328 -168.68634766 306.91927734 -169.16845703 305.96435547 C-170.31717884 303.69035515 -171.46960709 301.4183164 -172.62548828 299.14794922 C-186.82303744 297.45382286 -186.82303744 297.45382286 -198.05908203 304.48388672 Z M26.37451172 299.14794922 C22.41451172 307.06794922 18.45451172 314.98794922 14.37451172 323.14794922 C17.42083528 327.71743456 20.1123164 331.11905416 23.88623047 334.92529297 C26.09816046 338.22867398 26.45893956 340.13561656 26.37451172 344.14794922 C24.77081224 347.88209365 22.59402661 351.19023352 20.37451172 354.58544922 C19.7394873 355.59115967 19.10446289 356.59687012 18.45019531 357.63305664 C17.10951317 359.75396644 15.76086229 361.86985737 14.40478516 363.98095703 C11.8469989 367.97080831 9.34014354 371.9911513 6.83496094 376.01416016 C4.97342341 379.00232654 3.10403086 381.98547578 1.23388672 384.96826172 C-2.79338429 391.40407938 -6.77575298 397.8670895 -10.75048828 404.33544922 C-11.74459717 405.95302124 -11.74459717 405.95302124 -12.75878906 407.60327148 C-14.07212123 409.74038585 -15.3854353 411.87751134 -16.69873047 414.01464844 C-19.75171421 418.97942204 -22.81141334 423.94001426 -25.87548828 428.89794922 C-26.40029785 429.74897217 -26.92510742 430.59999512 -27.46582031 431.47680664 C-29.58080953 434.89639784 -31.70388337 438.2894589 -33.98486328 441.60107422 C-35.8060014 443.92324799 -35.8060014 443.92324799 -35.62548828 446.14794922 C13.87451172 446.14794922 63.37451172 446.14794922 114.37451172 446.14794922 C114.43638672 433.56669922 114.49826172 420.98544922 114.56201172 408.02294922 C114.58932373 404.07825684 114.61663574 400.13356445 114.64477539 396.06933594 C114.65482036 392.47438438 114.65482036 392.47438438 114.6608429 388.87942505 C114.66539257 387.30168098 114.67582225 385.72394607 114.6912384 384.14627075 C114.91739712 359.74084835 108.65429689 338.9796702 91.68701172 320.89794922 C84.52495603 314.02730737 75.50076405 308.05367585 66.37451172 304.14794922 C65.38451172 304.47794922 64.39451172 304.80794922 63.37451172 305.14794922 C63.77283203 306.18951172 64.17115234 307.23107422 64.58154297 308.30419922 C67.31086178 315.61736296 69.77223258 322.83259407 71.18701172 330.52294922 C71.30987549 331.18343262 71.43273926 331.84391602 71.55932617 332.52441406 C72.23953913 336.49058648 72.39077962 340.26020012 72.37451172 344.27294922 C72.42722113 346.87915545 72.42722113 346.87915545 73.37451172 349.14794922 C75.97747998 351.1434104 78.59041502 352.41084306 81.57373047 353.76513672 C86.78441007 356.33777351 89.83342751 360.51254328 92.24951172 365.71044922 C94.7342576 373.4191488 94.69013862 382.26735514 91.31201172 389.64794922 C87.2906936 396.54649214 81.95361473 400.62158155 74.37451172 403.14794922 C66.47701279 404.83102276 59.11793211 404.01722477 52.06201172 399.89794922 C46.49057583 396.05635431 41.89010364 390.90349461 40.37451172 384.14794922 C39.52443873 374.37793231 39.95721172 366.3883427 45.93701172 358.46044922 C49.64512253 354.3674459 54.36733976 352.29529372 59.37451172 350.14794922 C57.68583706 331.99469665 54.02858671 315.75894691 44.14013672 300.20654297 C41.07914991 298.3713053 37.64173232 298.84367284 34.18701172 298.96044922 C30.31982422 299.05326172 30.31982422 299.05326172 26.37451172 299.14794922 Z M-107.62548828 330.14794922 C-105.69569386 345.37528345 -103.57372736 360.56281329 -101.27001953 375.73779297 C-100.96022328 377.7899732 -100.65063178 379.84218435 -100.3412323 381.89442444 C-99.53938734 387.20942403 -98.73482513 392.52400856 -97.92962646 397.83850098 C-97.10324459 403.29621208 -96.27952958 408.75432565 -95.45556641 414.21240234 C-93.84809804 424.85797269 -92.23750132 435.50306611 -90.62548828 446.14794922 C-79.07548828 446.14794922 -67.52548828 446.14794922 -55.62548828 446.14794922 C-54.90103516 441.40291016 -54.17658203 436.65787109 -53.43017578 431.76904297 C-52.95925029 428.68546217 -52.48830938 425.60188373 -52.01733398 422.51831055 C-51.13139646 416.71780061 -50.24588648 410.91722571 -49.36091328 405.11656857 C-44.73437968 374.79387563 -44.73437968 374.79387563 -42.55908203 360.85888672 C-42.41444519 359.92998123 -42.26980835 359.00107574 -42.12078857 358.04402161 C-41.48535372 353.96328142 -40.84673314 349.88310557 -40.20117188 345.80395508 C-39.98436924 344.41473983 -39.76772282 343.02550019 -39.55126953 341.63623047 C-39.36991455 340.48678955 -39.18855957 339.33734863 -39.00170898 338.15307617 C-38.66233074 335.44223464 -38.55014268 332.87533268 -38.62548828 330.14794922 C-39.29378662 330.17824219 -39.96208496 330.20853516 -40.65063477 330.23974609 C-63.07500904 331.24006132 -85.19903111 331.07435635 -107.62548828 330.14794922 Z M55.37451172 370.14794922 C53.63481302 373.62734661 53.92621265 377.3438114 54.37451172 381.14794922 C56.27864672 385.26088083 57.77468852 386.79710923 61.68701172 389.08544922 C65.86379857 390.28893018 68.19884291 390.30785722 72.37451172 389.14794922 C75.88581739 386.88510779 77.77270627 384.96710108 79.37451172 381.14794922 C80.14480875 377.14092333 80.25264555 373.59983306 78.10107422 370.04248047 C74.52617988 365.76416488 74.52617988 365.76416488 69.45654297 363.83935547 C62.9526432 363.46994292 59.63337263 365.25532924 55.37451172 370.14794922 Z " fill="#ffffff" transform="translate(328.62548828125,37.85205078125)"/>
</svg>
