<?xml version="1.0" encoding="UTF-8"?>
<svg version="1.1" xmlns="http://www.w3.org/2000/svg" width="512" height="512">
<path d="M0 0 C0.87269531 -0.0038269 1.74539062 -0.00765381 2.64453125 -0.01159668 C4.48699092 -0.0143149 6.32948924 -0.00695994 8.171875 0.00976562 C10.99045934 0.03117752 13.80649485 0.00996199 16.625 -0.015625 C18.41667229 -0.01298171 20.20834299 -0.00785669 22 0 C22.84175781 -0.00809692 23.68351562 -0.01619385 24.55078125 -0.02453613 C28.31082437 0.03565687 30.37797303 0.10595491 33.53808594 2.26660156 C35.22575346 4.88096427 35.4697632 6.21048533 35.390625 9.296875 C35.38063477 10.09899414 35.37064453 10.90111328 35.36035156 11.72753906 C35.32393555 12.73526367 35.28751953 13.74298828 35.25 14.78125 C35.1675 17.99875 35.085 21.21625 35 24.53125 C42.92 24.53125 50.84 24.53125 59 24.53125 C58.84219838 18.12870344 58.84219838 18.12870344 58.63964844 11.72753906 C58.6296582 10.92541992 58.61966797 10.12330078 58.609375 9.296875 C58.58842773 8.47993164 58.56748047 7.66298828 58.54589844 6.82128906 C59.20807833 3.48190877 60.18513775 2.45584031 63 0.53125 C66.00184559 -0.05338093 68.9493481 -0.02934442 72 0 C73.30904297 -0.00574036 73.30904297 -0.00574036 74.64453125 -0.01159668 C76.48699092 -0.0143149 78.32948924 -0.00695994 80.171875 0.00976562 C82.99045934 0.03117752 85.80649485 0.00996199 88.625 -0.015625 C90.41667229 -0.01298171 92.20834299 -0.00785669 94 0 C94.84175781 -0.00809692 95.68351563 -0.01619385 96.55078125 -0.02453613 C100.31082437 0.03565687 102.37797303 0.10595491 105.53808594 2.26660156 C107.22575346 4.88096427 107.4697632 6.21048533 107.390625 9.296875 C107.38063477 10.09899414 107.37064453 10.90111328 107.36035156 11.72753906 C107.32393555 12.73526367 107.28751953 13.74298828 107.25 14.78125 C107.1675 17.99875 107.085 21.21625 107 24.53125 C114.92 24.53125 122.84 24.53125 131 24.53125 C130.84219838 18.12870344 130.84219838 18.12870344 130.63964844 11.72753906 C130.6296582 10.92541992 130.61966797 10.12330078 130.609375 9.296875 C130.58842773 8.47993164 130.56748047 7.66298828 130.54589844 6.82128906 C131.20807833 3.48190877 132.18513775 2.45584031 135 0.53125 C138.00184559 -0.05338093 140.9493481 -0.02934442 144 0 C145.30904297 -0.00574036 145.30904297 -0.00574036 146.64453125 -0.01159668 C148.48699092 -0.0143149 150.32948924 -0.00695994 152.171875 0.00976562 C154.99045934 0.03117752 157.80649485 0.00996199 160.625 -0.015625 C162.41667229 -0.01298171 164.20834299 -0.00785669 166 0 C166.84175781 -0.00809692 167.68351562 -0.01619385 168.55078125 -0.02453613 C172.31082437 0.03565687 174.37797303 0.10595491 177.53808594 2.26660156 C179.22575346 4.88096427 179.4697632 6.21048533 179.390625 9.296875 C179.38063477 10.09899414 179.37064453 10.90111328 179.36035156 11.72753906 C179.32393555 12.73526367 179.28751953 13.74298828 179.25 14.78125 C179.1675 17.99875 179.085 21.21625 179 24.53125 C186.92 24.53125 194.84 24.53125 203 24.53125 C202.84219838 18.12870344 202.84219838 18.12870344 202.63964844 11.72753906 C202.6296582 10.92541992 202.61966797 10.12330078 202.609375 9.296875 C202.58842773 8.47993164 202.56748047 7.66298828 202.54589844 6.82128906 C203.20807833 3.48190877 204.18513775 2.45584031 207 0.53125 C210.00184559 -0.05338093 212.9493481 -0.02934442 216 0 C217.30904297 -0.00574036 217.30904297 -0.00574036 218.64453125 -0.01159668 C220.48699092 -0.0143149 222.32948924 -0.00695994 224.171875 0.00976562 C226.99045934 0.03117752 229.80649485 0.00996199 232.625 -0.015625 C234.41667229 -0.01298171 236.20834299 -0.00785669 238 0 C238.84175781 -0.00809692 239.68351562 -0.01619385 240.55078125 -0.02453613 C244.31082437 0.03565687 246.37797303 0.10595491 249.53808594 2.26660156 C251.22575346 4.88096427 251.4697632 6.21048533 251.390625 9.296875 C251.38063477 10.09899414 251.37064453 10.90111328 251.36035156 11.72753906 C251.32393555 12.73526367 251.28751953 13.74298828 251.25 14.78125 C251.1675 17.99875 251.085 21.21625 251 24.53125 C258.92 24.53125 266.84 24.53125 275 24.53125 C274.84219838 18.12870344 274.84219838 18.12870344 274.63964844 11.72753906 C274.6296582 10.92541992 274.61966797 10.12330078 274.609375 9.296875 C274.58842773 8.47993164 274.56748047 7.66298828 274.54589844 6.82128906 C275.20807833 3.48190877 276.18513775 2.45584031 279 0.53125 C282.00184559 -0.05338093 284.9493481 -0.02934442 288 0 C289.30904297 -0.00574036 289.30904297 -0.00574036 290.64453125 -0.01159668 C292.48699092 -0.0143149 294.32948924 -0.00695994 296.171875 0.00976562 C298.99045934 0.03117752 301.80649485 0.00996199 304.625 -0.015625 C306.41667229 -0.01298171 308.20834299 -0.00785669 310 0 C310.84175781 -0.00809692 311.68351562 -0.01619385 312.55078125 -0.02453613 C316.08668422 0.0320687 318.41333274 0.21047258 321.546875 1.92382812 C323.85837845 6.07148552 323.41953338 10.12560256 323.25 14.78125 C323.23195313 15.71710937 323.21390625 16.65296875 323.1953125 17.6171875 C323.14825673 19.92292015 323.08253713 22.22655945 323 24.53125 C324.20946289 24.51030273 325.41892578 24.48935547 326.66503906 24.46777344 C331.20495497 24.3947016 335.74482024 24.34920883 340.28515625 24.31152344 C342.24032366 24.29155961 344.19543255 24.26437864 346.15039062 24.22949219 C364.1901089 23.91591835 377.09308077 26.17299781 390.75 38.84375 C401.57593686 50.28247574 403.45363772 62.92891324 403.38768005 78.07931519 C403.39185811 79.64682144 403.39733821 81.21432466 403.40399987 82.78182232 C403.41841133 87.06872033 403.41422325 91.35542537 403.40683305 95.64233375 C403.40209301 100.27366915 403.41461863 104.90496331 403.42485046 109.5362854 C403.44202747 118.60153006 403.44288074 127.66670537 403.43763756 136.73196207 C403.43359254 144.10195611 403.43504336 151.47192969 403.44038582 158.84192276 C403.44113424 159.89174046 403.44188266 160.94155815 403.44265376 162.02318851 C403.44418528 164.1560444 403.44572362 166.28890028 403.44726873 168.42175616 C403.46098983 188.41353203 403.45555885 208.40526875 403.44408352 228.39704372 C403.4341518 246.67567696 403.44709147 264.95420895 403.47101771 283.23282658 C403.49541607 302.01401774 403.50501475 320.79516176 403.49836498 339.57636845 C403.49487438 350.115506 403.49709441 360.6545657 403.51461601 371.19369125 C403.52934718 380.16546795 403.52996144 389.13711198 403.5125451 398.10888611 C403.50404026 402.68357727 403.50187293 407.25803153 403.51719666 411.83271027 C403.53106911 416.02615237 403.52624796 420.21915518 403.50695742 424.41257204 C403.50320492 425.92391548 403.50609764 427.43529432 403.51656907 428.94660614 C403.61905876 444.88042596 399.587347 456.53306585 388.6875 468.28125 C376.76904032 479.56122077 363.57932916 480.98040296 347.93338013 480.91893005 C346.20088223 480.92310701 344.46838707 480.92858652 342.73589694 480.93524987 C337.99294193 480.94967565 333.2501611 480.94546871 328.50719666 480.93808305 C323.38506083 480.93334659 318.26296241 480.94586548 313.14083862 480.95610046 C303.11305709 480.97328443 293.08533823 480.9741293 283.0575458 480.96888756 C274.90570639 480.96484386 266.75388549 480.9662918 258.60204697 480.97163582 C256.86079875 480.97275845 256.86079875 480.97275845 255.08437379 480.97390376 C252.72603791 480.97543526 250.36770202 480.97697361 248.00936614 480.97851873 C225.90018661 480.99224233 203.79104249 480.98680707 181.68186377 480.97533352 C161.46327634 480.96540141 141.24478042 480.9783417 121.0262071 481.00226771 C100.25619513 481.02666074 79.48622577 481.03626606 58.71619976 481.02961498 C47.05923798 481.02612321 35.40234659 481.02835212 23.74539566 481.04586601 C13.82208043 481.06059051 3.89888513 481.06122012 -6.02442776 481.0437951 C-11.08517491 481.03528483 -16.14570782 481.03313635 -21.20644379 481.04844666 C-25.84397272 481.06230269 -30.48110405 481.05751873 -35.11861004 481.03820742 C-36.79145992 481.03444993 -38.46434173 481.03736211 -40.13716315 481.04781907 C-56.49921892 481.14278371 -68.55922442 477.52922888 -80.75 466.21875 C-91.57593686 454.78002426 -93.45363772 442.13358676 -93.38768005 426.98318481 C-93.39185811 425.41567856 -93.39733821 423.84817534 -93.40399987 422.28067768 C-93.41841133 417.99377967 -93.41422325 413.70707463 -93.40683305 409.42016625 C-93.40209301 404.78883085 -93.41461863 400.15753669 -93.42485046 395.5262146 C-93.44202747 386.46096994 -93.44288074 377.39579463 -93.43763756 368.33053793 C-93.43359254 360.96054389 -93.43504336 353.59057031 -93.44038582 346.22057724 C-93.44113424 345.17075954 -93.44188266 344.12094185 -93.44265376 343.03931149 C-93.44418528 340.9064556 -93.44572362 338.77359972 -93.44726873 336.64074384 C-93.46098983 316.64896797 -93.45555885 296.65723125 -93.44408352 276.66545628 C-93.4341518 258.38682304 -93.44709147 240.10829105 -93.47101771 221.82967342 C-93.49541607 203.04848226 -93.50501475 184.26733824 -93.49836498 165.48613155 C-93.49487438 154.946994 -93.49709441 144.4079343 -93.51461601 133.86880875 C-93.52934718 124.89703205 -93.52996144 115.92538802 -93.5125451 106.95361389 C-93.50404026 102.37892273 -93.50187293 97.80446847 -93.51719666 93.22978973 C-93.53106911 89.03634763 -93.52624796 84.84334482 -93.50695742 80.64992796 C-93.50320492 79.13858452 -93.50609764 77.62720568 -93.51656907 76.11589386 C-93.61905876 60.18207404 -89.587347 48.52943415 -78.6875 36.78125 C-69.10549404 27.71256579 -57.83779875 24.00610246 -44.8359375 24.23828125 C-43.91785309 24.24252609 -42.99976868 24.24677094 -42.05386353 24.25114441 C-39.16059322 24.26775503 -36.2680549 24.30537225 -33.375 24.34375 C-31.39714557 24.35881968 -29.41928008 24.37250405 -27.44140625 24.38476562 C-22.62732798 24.41760047 -17.81378749 24.46925762 -13 24.53125 C-13.0314209 23.65388184 -13.0314209 23.65388184 -13.06347656 22.75878906 C-13.14680115 20.09978535 -13.19870897 17.44105645 -13.25 14.78125 C-13.28351563 13.86085938 -13.31703125 12.94046875 -13.3515625 11.9921875 C-13.44804067 5.33519394 -13.44804067 5.33519394 -11.546875 1.92382812 C-7.73130266 -0.16244724 -4.28628259 -0.04123003 0 0 Z M3 16.53125 C3 27.09125 3 37.65125 3 48.53125 C8.28 48.53125 13.56 48.53125 19 48.53125 C19 37.97125 19 27.41125 19 16.53125 C13.72 16.53125 8.44 16.53125 3 16.53125 Z M75 16.53125 C75 27.09125 75 37.65125 75 48.53125 C80.28 48.53125 85.56 48.53125 91 48.53125 C91 37.97125 91 27.41125 91 16.53125 C85.72 16.53125 80.44 16.53125 75 16.53125 Z M147 16.53125 C147 27.09125 147 37.65125 147 48.53125 C152.28 48.53125 157.56 48.53125 163 48.53125 C163 37.97125 163 27.41125 163 16.53125 C157.72 16.53125 152.44 16.53125 147 16.53125 Z M219 16.53125 C219 27.09125 219 37.65125 219 48.53125 C224.28 48.53125 229.56 48.53125 235 48.53125 C235 37.97125 235 27.41125 235 16.53125 C229.72 16.53125 224.44 16.53125 219 16.53125 Z M291 16.53125 C291 27.09125 291 37.65125 291 48.53125 C296.28 48.53125 301.56 48.53125 307 48.53125 C307 37.97125 307 27.41125 307 16.53125 C301.72 16.53125 296.44 16.53125 291 16.53125 Z M-69.375 51.78125 C-76.08068888 60.36757118 -77 69.95442353 -77 80.53125 C76.12 80.53125 229.24 80.53125 387 80.53125 C387 69.35148203 386.15688908 60.48880627 379 51.53125 C369.77903046 42.48072352 359.99287622 40.38268423 347.31640625 40.43359375 C346.61603745 40.4350087 345.91566864 40.43642365 345.19407654 40.43788147 C342.98350534 40.44342523 340.77303996 40.45596674 338.5625 40.46875 C337.05273585 40.47377229 335.54297009 40.47833391 334.03320312 40.48242188 C330.35543507 40.49337613 326.67772788 40.5106011 323 40.53125 C322.98541748 41.12139893 322.97083496 41.71154785 322.95581055 42.31958008 C322.88131156 44.99496229 322.78466005 47.66909892 322.6875 50.34375 C322.66494141 51.27251953 322.64238281 52.20128906 322.61914062 53.15820312 C322.58369141 54.05087891 322.54824219 54.94355469 322.51171875 55.86328125 C322.48553467 56.68546143 322.45935059 57.5076416 322.43237305 58.35473633 C321.89670741 61.05121242 321.11984356 61.82107782 319 63.53125 C315.95137475 63.82972993 313.11139905 63.95146845 310.0625 63.9296875 C309.18601807 63.93255768 308.30953613 63.93542786 307.40649414 63.93838501 C305.55386712 63.94042598 303.70121858 63.93489378 301.84863281 63.92236328 C299.01057821 63.90630984 296.17394773 63.92221055 293.3359375 63.94140625 C291.53645519 63.93942382 289.73697376 63.93558016 287.9375 63.9296875 C287.08744385 63.93576019 286.2373877 63.94183289 285.36157227 63.9480896 C279.42876671 63.87715519 279.42876671 63.87715519 277.27922058 62.14302063 C275.5781923 59.9997879 275.57478279 58.5794295 275.48828125 55.86328125 C275.45516846 55.05866455 275.42205566 54.25404785 275.38793945 53.42504883 C275.35059692 51.89980591 275.35059692 51.89980591 275.3125 50.34375 C275.209375 47.105625 275.10625 43.8675 275 40.53125 C267.08 40.53125 259.16 40.53125 251 40.53125 C250.79021677 46.97770403 250.79021677 46.97770403 250.61206055 53.42504883 C250.57894775 54.22966553 250.54583496 55.03428223 250.51171875 55.86328125 C250.48553467 56.68546143 250.45935059 57.5076416 250.43237305 58.35473633 C249.89670741 61.05121242 249.11984356 61.82107782 247 63.53125 C243.95137475 63.82972993 241.11139905 63.95146845 238.0625 63.9296875 C237.18601807 63.93255768 236.30953613 63.93542786 235.40649414 63.93838501 C233.55386712 63.94042598 231.70121858 63.93489378 229.84863281 63.92236328 C227.01057821 63.90630984 224.17394773 63.92221055 221.3359375 63.94140625 C219.53645519 63.93942382 217.73697376 63.93558016 215.9375 63.9296875 C215.08744385 63.93576019 214.2373877 63.94183289 213.36157227 63.9480896 C207.42876671 63.87715519 207.42876671 63.87715519 205.27922058 62.14302063 C203.5781923 59.9997879 203.57478279 58.5794295 203.48828125 55.86328125 C203.45516846 55.05866455 203.42205566 54.25404785 203.38793945 53.42504883 C203.35059692 51.89980591 203.35059692 51.89980591 203.3125 50.34375 C203.209375 47.105625 203.10625 43.8675 203 40.53125 C195.08 40.53125 187.16 40.53125 179 40.53125 C178.79021677 46.97770403 178.79021677 46.97770403 178.61206055 53.42504883 C178.56239136 54.63197388 178.56239136 54.63197388 178.51171875 55.86328125 C178.48553467 56.68546143 178.45935059 57.5076416 178.43237305 58.35473633 C177.89670741 61.05121242 177.11984356 61.82107782 175 63.53125 C171.95137475 63.82972993 169.11139905 63.95146845 166.0625 63.9296875 C165.18601807 63.93255768 164.30953613 63.93542786 163.40649414 63.93838501 C161.55386712 63.94042598 159.70121858 63.93489378 157.84863281 63.92236328 C155.01057821 63.90630984 152.17394773 63.92221055 149.3359375 63.94140625 C147.53645519 63.93942382 145.73697376 63.93558016 143.9375 63.9296875 C143.08744385 63.93576019 142.2373877 63.94183289 141.36157227 63.9480896 C135.42876671 63.87715519 135.42876671 63.87715519 133.27922058 62.14302063 C131.5781923 59.9997879 131.57478279 58.5794295 131.48828125 55.86328125 C131.45516846 55.05866455 131.42205566 54.25404785 131.38793945 53.42504883 C131.35059692 51.89980591 131.35059692 51.89980591 131.3125 50.34375 C131.209375 47.105625 131.10625 43.8675 131 40.53125 C123.08 40.53125 115.16 40.53125 107 40.53125 C106.79021677 46.97770403 106.79021677 46.97770403 106.61206055 53.42504883 C106.56239136 54.63197388 106.56239136 54.63197388 106.51171875 55.86328125 C106.48553467 56.68546143 106.45935059 57.5076416 106.43237305 58.35473633 C105.89670741 61.05121242 105.11984356 61.82107782 103 63.53125 C99.95137475 63.82972993 97.11139905 63.95146845 94.0625 63.9296875 C93.18601807 63.93255768 92.30953613 63.93542786 91.40649414 63.93838501 C89.55386712 63.94042598 87.70121858 63.93489378 85.84863281 63.92236328 C83.01057821 63.90630984 80.17394773 63.92221055 77.3359375 63.94140625 C75.53645519 63.93942382 73.73697376 63.93558016 71.9375 63.9296875 C71.08744385 63.93576019 70.2373877 63.94183289 69.36157227 63.9480896 C63.42876671 63.87715519 63.42876671 63.87715519 61.27922058 62.14302063 C59.5781923 59.9997879 59.57478279 58.5794295 59.48828125 55.86328125 C59.45516846 55.05866455 59.42205566 54.25404785 59.38793945 53.42504883 C59.35059692 51.89980591 59.35059692 51.89980591 59.3125 50.34375 C59.209375 47.105625 59.10625 43.8675 59 40.53125 C51.08 40.53125 43.16 40.53125 35 40.53125 C34.79021677 46.97770403 34.79021677 46.97770403 34.61206055 53.42504883 C34.56239136 54.63197388 34.56239136 54.63197388 34.51171875 55.86328125 C34.48553467 56.68546143 34.45935059 57.5076416 34.43237305 58.35473633 C33.89670741 61.05121242 33.11984356 61.82107782 31 63.53125 C27.95137475 63.82972993 25.11139905 63.95146845 22.0625 63.9296875 C21.18601807 63.93255768 20.30953613 63.93542786 19.40649414 63.93838501 C17.55386712 63.94042598 15.70121858 63.93489378 13.84863281 63.92236328 C11.01057821 63.90630984 8.17394773 63.92221055 5.3359375 63.94140625 C3.53645519 63.93942382 1.73697376 63.93558016 -0.0625 63.9296875 C-0.91255615 63.93576019 -1.7626123 63.94183289 -2.63842773 63.9480896 C-8.57123329 63.87715519 -8.57123329 63.87715519 -10.72077942 62.14302063 C-12.4218077 59.9997879 -12.42521721 58.5794295 -12.51171875 55.86328125 C-12.54716797 54.97060547 -12.58261719 54.07792969 -12.61914062 53.15820312 C-12.64169922 52.22943359 -12.66425781 51.30066406 -12.6875 50.34375 C-12.72166016 49.40337891 -12.75582031 48.46300781 -12.79101562 47.49414062 C-12.87348218 45.17329607 -12.94263403 42.85282852 -13 40.53125 C-17.3558609 40.4812136 -21.7115624 40.44523466 -26.06762695 40.42138672 C-27.54454468 40.41142817 -29.02144322 40.39785639 -30.49829102 40.38037109 C-45.1269791 40.21171209 -58.67033311 40.43269337 -69.375 51.78125 Z M-77 96.53125 C-77.04125 142.504375 -77.0825 188.4775 -77.125 235.84375 C-77.14320801 250.36157471 -77.16141602 264.87939941 -77.18017578 279.8371582 C-77.18686452 292.84725142 -77.18686452 292.84725142 -77.19088745 305.85734558 C-77.19275124 311.65354538 -77.2000822 317.44970654 -77.21115112 323.24589539 C-77.22390592 329.93480143 -77.22966624 336.62367047 -77.2268899 343.31258876 C-77.22568804 346.73230713 -77.22868272 350.15187676 -77.23843026 353.57159102 C-77.24840181 357.24065009 -77.2459711 360.90950354 -77.24050903 364.5785675 C-77.24633436 365.6356853 -77.25215969 366.6928031 -77.25816154 367.78195477 C-77.21403764 378.83645645 -76.0670221 388.68617116 -69 397.53125 C-58.07833712 408.25103371 -46.26969185 408.68528389 -31.70606995 408.65150452 C-30.34709384 408.65194092 -28.98811781 408.65281711 -27.62914222 408.65409368 C-23.90523064 408.65632498 -20.18134793 408.65233606 -16.45744002 408.64731562 C-12.43775728 408.64299169 -8.41807613 408.64445893 -4.39839172 408.6452179 C2.5625338 408.6457419 9.52344993 408.642608 16.48437309 408.63698006 C26.54866312 408.62884833 36.61294862 408.62624812 46.67724157 408.62499207 C63.00642859 408.62280418 79.33561061 408.61615122 95.66479492 408.60668945 C111.52579727 408.59750853 127.38679826 408.59043102 143.24780273 408.58618164 C144.71464596 408.58578756 144.71464596 408.58578756 146.21112239 408.58538551 C151.11700331 408.58408046 156.02288424 408.58281675 160.92876518 408.58157361 C201.61918026 408.57120919 242.30958985 408.55359802 283 408.53125 C283.00586624 407.28510422 283.01173248 406.03895844 283.01777649 404.75505066 C283.07492101 393.02708928 283.1476391 381.29931479 283.23571491 369.57154369 C283.28049513 363.54176855 283.31973435 357.51206219 283.34643555 351.48217773 C283.37239219 345.66600389 283.41274023 339.85009362 283.46318626 334.03408241 C283.47990678 331.81209904 283.49138864 329.59007002 283.49761391 327.36803246 C283.50719865 324.26224326 283.53519041 321.1571363 283.56762695 318.05151367 C283.56619186 317.12722565 283.56475677 316.20293762 283.5632782 315.25064087 C283.57581635 314.40510147 283.58835449 313.55956207 283.60127258 312.68840027 C283.60588155 311.95373126 283.61049051 311.21906225 283.61523914 310.46213055 C284 308.53125 284 308.53125 287 305.53125 C320 305.20125 353 304.87125 387 304.53125 C387 235.89125 387 167.25125 387 96.53125 C233.88 96.53125 80.76 96.53125 -77 96.53125 Z M299 320.53125 C299 345.28125 299 370.03125 299 395.53125 C315.19040845 381.65375705 330.14849628 366.54109007 345.20288086 351.45874023 C348.35010827 348.30572767 351.50192551 345.15734672 354.65500546 342.0101881 C357.09390783 339.57488193 359.53044541 337.13722108 361.96624947 334.6988163 C363.12938576 333.53501265 364.29326612 332.37195213 365.45789909 331.20964622 C367.06802437 329.60204135 368.67494323 327.99130087 370.28100586 326.37963867 C371.65209755 325.00735359 371.65209755 325.00735359 373.05088806 323.60734558 C375.11407652 321.88435271 375.11407652 321.88435271 375 320.53125 C349.92 320.53125 324.84 320.53125 299 320.53125 Z M383.99609375 336.47265625 C382.30837115 338.20160566 380.62086632 339.93076767 378.93359375 341.66015625 C376.79908733 343.80044731 374.57276368 345.78670933 372.27877808 347.75466919 C368.221541 351.29133771 364.39509141 355.00752775 360.60595703 358.82763672 C359.57026833 359.86551582 359.57026833 359.86551582 358.51365662 360.92436218 C357.03010633 362.41168911 355.54771124 363.90016907 354.06637955 365.38970566 C351.7236454 367.74529204 349.37772362 370.09766233 347.03097534 372.44924927 C342.05949264 377.43210484 337.09197388 382.41890051 332.125 387.40625 C326.3468643 393.20797956 320.56711914 399.00808669 314.78316879 404.80401993 C312.46888848 407.12479535 310.15763145 409.44855354 307.84646606 411.77243042 C306.43701625 413.18551036 305.0274272 414.59845143 303.61767578 416.01123047 C302.97353226 416.66054031 302.32938873 417.30985016 301.66572571 417.97883606 C297.22196311 422.42313089 295.53506916 423.65494628 289.32134438 423.66547108 C288.10557421 423.66992892 286.88980405 423.67438676 285.63719237 423.67897969 C284.27575722 423.67889039 282.91432208 423.67870052 281.55288696 423.67842102 C280.11603202 423.68171873 278.67917801 423.6854441 277.24232519 423.6895625 C273.27945902 423.69960189 269.316608 423.70330243 265.35373092 423.70595181 C261.08491478 423.70984934 256.8161107 423.71942831 252.54730225 423.72816467 C242.22837402 423.74794871 231.90944478 423.75799951 221.59050232 423.76689246 C216.73160269 423.77127376 211.87270415 423.77664112 207.01380539 423.78188133 C190.86070037 423.7988985 174.70759603 423.81339132 158.55448341 423.82063007 C154.36037826 423.82254 150.1662731 423.82446032 145.97216797 423.82641602 C144.40851331 423.82714163 144.40851331 423.82714163 142.81326966 423.8278819 C125.93736902 423.836177 109.06153939 423.86150295 92.18566974 423.89399669 C74.86019692 423.927084 57.53476015 423.9450805 40.20925558 423.94827431 C30.48152669 423.95043828 20.75390123 423.95916994 11.02620316 423.98473549 C2.73862208 424.00646562 -5.54883046 424.01448167 -13.83643679 424.00476871 C-18.06274391 424.00023018 -22.288786 424.00208385 -26.51505661 424.02153015 C-30.39054111 424.03920767 -34.26556814 424.03812731 -38.1410578 424.02263286 C-39.53690102 424.02026365 -40.93277629 424.02454445 -42.32857065 424.03646151 C-53.41430706 424.12518295 -63.29948752 422.39628749 -72.75 416.28125 C-73.56984375 415.76046875 -74.3896875 415.2396875 -75.234375 414.703125 C-75.81703125 414.31640625 -76.3996875 413.9296875 -77 413.53125 C-77.86139356 434.77874679 -77.86139356 434.77874679 -69 453.53125 C-59.97539935 462.38903733 -50.34847783 464.65262932 -37.92244339 464.65988445 C-37.24231257 464.66163749 -36.56218174 464.66339053 -35.8614409 464.66519669 C-33.58983724 464.66983653 -31.31829816 464.66739641 -29.04669189 464.66496277 C-27.39856945 464.66683176 -25.75044745 464.66913281 -24.10232615 464.67182809 C-19.57874376 464.67794165 -15.05517986 464.67781302 -10.53159428 464.67663372 C-5.65074949 464.6764296 -0.76991063 464.68194955 4.1109314 464.68669128 C13.67153993 464.69499601 23.2321423 464.69774605 32.79275414 464.69830366 C40.56471022 464.69877892 48.33666426 464.70083413 56.10861969 464.70400429 C78.14655275 464.71281045 100.18448094 464.71742373 122.22241578 464.71667381 C123.41036623 464.71663386 124.59831668 464.7165939 125.82226562 464.71655273 C127.01166761 464.71651185 128.20106959 464.71647097 129.42651406 464.71642885 C148.7018281 464.71602242 167.97712261 464.72559149 187.25243101 464.7396911 C207.04713434 464.75405631 226.84182815 464.7609612 246.63653684 464.76009732 C257.74855197 464.7597654 268.86054663 464.76251048 279.97255707 464.77327538 C289.43371171 464.78238228 298.89483659 464.78455406 308.35599372 464.77776595 C313.18161091 464.7745017 318.00717099 464.7744407 322.83278275 464.7831192 C327.25439114 464.79098924 331.67589719 464.7895476 336.0975031 464.78083507 C337.69303802 464.7793012 339.2885806 464.78111199 340.88410649 464.78669515 C353.68583613 464.82850791 365.60838305 464.8339218 376 456.53125 C385.67663424 446.6723816 387.16702261 436.00149448 387.11352539 422.74047852 C387.11374443 421.30517036 387.11374443 421.30517036 387.1139679 419.84086609 C387.11327462 416.69727259 387.10550971 413.55373932 387.09765625 410.41015625 C387.09578999 408.22297701 387.09436707 406.03579736 387.09336853 403.84861755 C387.08955973 398.10624019 387.07974346 392.36388832 387.06866455 386.621521 C387.05841519 380.75614771 387.05386337 374.89077029 387.04882812 369.02539062 C387.03811968 357.52733258 387.02106297 346.02929341 387 334.53125 C385.65468518 334.41528037 385.65468518 334.41528037 383.99609375 336.47265625 Z " fill="#06693a" transform="translate(101,15.46875)"/>
<path d="M0 0 C0.87269531 -0.0038269 1.74539062 -0.00765381 2.64453125 -0.01159668 C4.48699092 -0.0143149 6.32948924 -0.00695994 8.171875 0.00976562 C10.99045934 0.03117752 13.80649485 0.00996199 16.625 -0.015625 C18.41667229 -0.01298171 20.20834299 -0.00785669 22 0 C22.84175781 -0.00809692 23.68351562 -0.01619385 24.55078125 -0.02453613 C30.37749351 0.06874133 30.37749351 0.06874133 33.53808594 2.41699219 C35.28446213 4.94264647 35.42858757 6.24526123 35.25 9.28125 C35.21390625 10.08046875 35.1778125 10.8796875 35.140625 11.703125 C35.09421875 12.30640625 35.0478125 12.9096875 35 13.53125 C36.00417969 13.00015625 37.00835937 12.4690625 38.04296875 11.921875 C59.96636705 0.52375529 84.40937832 -3.88427522 108.58203125 3.32421875 C116.44407828 6.1006445 123.88404817 9.1646432 131 13.53125 C130.95359375 12.92796875 130.9071875 12.3246875 130.859375 11.703125 C130.82328125 10.90390625 130.7871875 10.1046875 130.75 9.28125 C130.70359375 8.49234375 130.6571875 7.7034375 130.609375 6.890625 C131.17082296 3.49947931 132.24035486 2.58160581 135 0.53125 C137.9980084 -0.06761246 140.95082969 -0.02933017 144 0 C145.30904297 -0.00574036 145.30904297 -0.00574036 146.64453125 -0.01159668 C148.48699092 -0.0143149 150.32948924 -0.00695994 152.171875 0.00976562 C154.99045934 0.03117752 157.80649485 0.00996199 160.625 -0.015625 C162.41667229 -0.01298171 164.20834299 -0.00785669 166 0 C166.84175781 -0.00809692 167.68351563 -0.01619385 168.55078125 -0.02453613 C172.13136419 0.03278396 174.39761762 0.18098442 177.52929688 2.00195312 C179.73374916 5.79314264 179.57275697 9.21617695 179.53125 13.53125 C179.5350769 14.40394531 179.53890381 15.27664062 179.54284668 16.17578125 C179.5455649 18.01824092 179.53820994 19.86073924 179.52148438 21.703125 C179.50007248 24.52170934 179.52128801 27.33774485 179.546875 30.15625 C179.54423171 31.94792229 179.53910669 33.73959299 179.53125 35.53125 C179.53934692 36.37300781 179.54744385 37.21476562 179.55578613 38.08203125 C179.4626791 43.89809729 179.4626791 43.89809729 177.15527344 47.05566406 C174.30495124 49.00710803 172.17938588 49.13214627 168.75 49.28125 C167.13351562 49.36632812 167.13351562 49.36632812 165.484375 49.453125 C164.66453125 49.47890625 163.8446875 49.5046875 163 49.53125 C163.32613281 50.23507813 163.65226563 50.93890625 163.98828125 51.6640625 C173.64556147 73.48552755 174.38081454 99.18154703 165.84375 121.5625 C164.96958311 123.58557195 163.99985277 125.56725349 163 127.53125 C163.81984375 127.55703125 164.6396875 127.5828125 165.484375 127.609375 C166.56203125 127.66609375 167.6396875 127.7228125 168.75 127.78125 C169.81734375 127.82765625 170.8846875 127.8740625 171.984375 127.921875 C175.7583127 128.68448417 176.73148999 129.42690994 179 132.53125 C179.59523921 135.53022379 179.56058347 138.48173626 179.53125 141.53125 C179.5350769 142.40394531 179.53890381 143.27664063 179.54284668 144.17578125 C179.5455649 146.01824092 179.53820994 147.86073924 179.52148438 149.703125 C179.50007248 152.52170934 179.52128801 155.33774485 179.546875 158.15625 C179.54423171 159.94792229 179.53910669 161.73959299 179.53125 163.53125 C179.53934692 164.37300781 179.54744385 165.21476563 179.55578613 166.08203125 C179.49846604 169.66261419 179.35026558 171.92886762 177.52929688 175.06054688 C173.73810736 177.26499916 170.31507305 177.10400697 166 177.0625 C165.12730469 177.0663269 164.25460937 177.07015381 163.35546875 177.07409668 C161.51300908 177.0768149 159.67051076 177.06945994 157.828125 177.05273438 C155.00954066 177.03132248 152.19350515 177.05253801 149.375 177.078125 C147.58332771 177.07548171 145.79165701 177.07035669 144 177.0625 C143.15824219 177.07059692 142.31648437 177.07869385 141.44921875 177.08703613 C135.62250649 176.99375867 135.62250649 176.99375867 132.46191406 174.64550781 C130.71553787 172.11985353 130.57141243 170.81723877 130.75 167.78125 C130.78609375 166.98203125 130.8221875 166.1828125 130.859375 165.359375 C130.90578125 164.75609375 130.9521875 164.1528125 131 163.53125 C129.49373047 164.32789063 129.49373047 164.32789063 127.95703125 165.140625 C106.03363295 176.53874471 81.59062168 180.94677522 57.41796875 173.73828125 C49.55592172 170.9618555 42.11595183 167.8978568 35 163.53125 C35.04640625 164.13453125 35.0928125 164.7378125 35.140625 165.359375 C35.19476563 166.55820312 35.19476563 166.55820312 35.25 167.78125 C35.29640625 168.57015625 35.3428125 169.3590625 35.390625 170.171875 C34.82917704 173.56302069 33.75964514 174.48089419 31 176.53125 C28.0019916 177.13011246 25.04917031 177.09183017 22 177.0625 C21.12730469 177.0663269 20.25460938 177.07015381 19.35546875 177.07409668 C17.51300908 177.0768149 15.67051076 177.06945994 13.828125 177.05273438 C11.00954066 177.03132248 8.19350515 177.05253801 5.375 177.078125 C3.58332771 177.07548171 1.79165701 177.07035669 0 177.0625 C-0.84175781 177.07059692 -1.68351563 177.07869385 -2.55078125 177.08703613 C-6.13136419 177.02971604 -8.39761762 176.88151558 -11.52929688 175.06054688 C-13.73374916 171.26935736 -13.57275697 167.84632305 -13.53125 163.53125 C-13.5350769 162.65855469 -13.53890381 161.78585937 -13.54284668 160.88671875 C-13.5455649 159.04425908 -13.53820994 157.20176076 -13.52148438 155.359375 C-13.50007248 152.54079066 -13.52128801 149.72475515 -13.546875 146.90625 C-13.54423171 145.11457771 -13.53910669 143.32290701 -13.53125 141.53125 C-13.53934692 140.68949219 -13.54744385 139.84773437 -13.55578613 138.98046875 C-13.4626791 133.16440271 -13.4626791 133.16440271 -11.15527344 130.00683594 C-8.30495124 128.05539197 -6.17938588 127.93035373 -2.75 127.78125 C-1.13351563 127.69617188 -1.13351563 127.69617188 0.515625 127.609375 C1.33546875 127.58359375 2.1553125 127.5578125 3 127.53125 C2.67386719 126.82742188 2.34773437 126.12359375 2.01171875 125.3984375 C-7.64556147 103.57697245 -8.38081454 77.88095297 0.15625 55.5 C1.03041689 53.47692805 2.00014723 51.49524651 3 49.53125 C1.77023438 49.49257812 1.77023438 49.49257812 0.515625 49.453125 C-0.56203125 49.39640625 -1.6396875 49.3396875 -2.75 49.28125 C-3.81734375 49.23484375 -4.8846875 49.1884375 -5.984375 49.140625 C-9.7583127 48.37801583 -10.73148999 47.63559006 -13 44.53125 C-13.59523921 41.53227621 -13.56058347 38.58076374 -13.53125 35.53125 C-13.5350769 34.65855469 -13.53890381 33.78585938 -13.54284668 32.88671875 C-13.5455649 31.04425908 -13.53820994 29.20176076 -13.52148438 27.359375 C-13.50007248 24.54079066 -13.52128801 21.72475515 -13.546875 18.90625 C-13.54423171 17.11457771 -13.53910669 15.32290701 -13.53125 13.53125 C-13.53934692 12.68949219 -13.54744385 11.84773437 -13.55578613 10.98046875 C-13.49846604 7.39988581 -13.35026558 5.13363238 -11.52929688 2.00195312 C-7.73810736 -0.20249916 -4.31507305 -0.04150697 0 0 Z M3 16.53125 C3 21.81125 3 27.09125 3 32.53125 C10.77820098 33.30056469 10.77820098 33.30056469 17.75 30.71875 C19.64228368 25.89342661 19.24885353 21.69496082 19 16.53125 C13.72 16.53125 8.44 16.53125 3 16.53125 Z M147 16.53125 C146.55443139 23.79419371 146.55443139 23.79419371 148.25 30.71875 C152.88572136 33.7741118 157.55787667 32.82701757 163 32.53125 C163 27.25125 163 21.97125 163 16.53125 C157.72 16.53125 152.44 16.53125 147 16.53125 Z M31.75 38.21875 C17.1405235 53.07042449 11.70102305 70.71923668 11.6105957 91.08837891 C11.7298359 100.37516779 13.39530822 108.0209997 17 116.53125 C17.39574219 117.48128906 17.79148438 118.43132812 18.19921875 119.41015625 C25.55911249 135.42587186 39.52544372 148.26540616 55.63671875 155.06640625 C76.68887498 162.61174542 96.35586809 161.57341279 116.4375 152.15625 C134.30306541 142.52256448 146.16419265 126.88895983 152.08984375 107.74609375 C152.39019531 106.68519531 152.69054687 105.62429687 153 104.53125 C153.17885742 103.90589355 153.35771484 103.28053711 153.54199219 102.63623047 C157.35214848 85.12494712 153.18711482 65.59557222 144 50.53125 C141.53462003 46.99736497 138.86871964 43.74400428 136 40.53125 C135.32195312 39.75910156 134.64390625 38.98695313 133.9453125 38.19140625 C120.56629877 23.85674868 103.03977883 18.22087276 84 16.53125 C63.90265212 16.53125 46.11598279 24.2883736 31.75 38.21875 Z M3 144.53125 C3 149.81125 3 155.09125 3 160.53125 C8.28 160.53125 13.56 160.53125 19 160.53125 C19.44556861 153.26830629 19.44556861 153.26830629 17.75 146.34375 C13.11427864 143.2883882 8.44212333 144.23548243 3 144.53125 Z M148.25 146.34375 C146.35771632 151.16907339 146.75114647 155.36753918 147 160.53125 C152.28 160.53125 157.56 160.53125 163 160.53125 C163 155.25125 163 149.97125 163 144.53125 C155.22179902 143.76193531 155.22179902 143.76193531 148.25 146.34375 Z " fill="#06693a" transform="translate(173,135.46875)"/>
<path d="M0 0 C0.87269531 -0.0038269 1.74539062 -0.00765381 2.64453125 -0.01159668 C4.48699092 -0.0143149 6.32948924 -0.00695994 8.171875 0.00976562 C10.99045934 0.03117752 13.80649485 0.00996199 16.625 -0.015625 C18.41667229 -0.01298171 20.20834299 -0.00785669 22 0 C22.84175781 -0.00809692 23.68351562 -0.01619385 24.55078125 -0.02453613 C28.31082437 0.03565687 30.37797303 0.10595491 33.53808594 2.26660156 C35.22575346 4.88096427 35.4697632 6.21048533 35.390625 9.296875 C35.37773437 10.18632812 35.36484375 11.07578125 35.3515625 11.9921875 C35.31804687 12.91257813 35.28453125 13.83296875 35.25 14.78125 C35.23195313 15.71710938 35.21390625 16.65296875 35.1953125 17.6171875 C35.14825673 19.92292015 35.08253713 22.22655945 35 24.53125 C35.87736816 24.4998291 35.87736816 24.4998291 36.77246094 24.46777344 C39.43146465 24.38444885 42.09019355 24.33254103 44.75 24.28125 C46.13058594 24.23097656 46.13058594 24.23097656 47.5390625 24.1796875 C48.42851562 24.16679687 49.31796875 24.15390625 50.234375 24.140625 C51.05131836 24.11967773 51.86826172 24.09873047 52.70996094 24.07714844 C56.04934123 24.73932833 57.07540969 25.71638775 59 28.53125 C59.58463093 31.53309559 59.56059442 34.4805981 59.53125 37.53125 C59.53699036 38.84029297 59.53699036 38.84029297 59.54284668 40.17578125 C59.5455649 42.01824092 59.53820994 43.86073924 59.52148438 45.703125 C59.50007248 48.52170934 59.52128801 51.33774485 59.546875 54.15625 C59.54423171 55.94792229 59.53910669 57.73959299 59.53125 59.53125 C59.53934692 60.37300781 59.54744385 61.21476562 59.55578613 62.08203125 C59.49559313 65.84207437 59.42529509 67.90922303 57.26464844 71.06933594 C54.65028573 72.75700346 53.32076467 73.0010132 50.234375 72.921875 C49.34492188 72.90898437 48.45546875 72.89609375 47.5390625 72.8828125 C46.61867188 72.84929687 45.69828125 72.81578125 44.75 72.78125 C43.81414062 72.76320313 42.87828125 72.74515625 41.9140625 72.7265625 C39.60832985 72.67950673 37.30469055 72.61378713 35 72.53125 C35.0314209 73.40861816 35.0314209 73.40861816 35.06347656 74.30371094 C35.14680115 76.96271465 35.19870897 79.62144355 35.25 82.28125 C35.28351563 83.20164062 35.31703125 84.12203125 35.3515625 85.0703125 C35.37089844 86.40449219 35.37089844 86.40449219 35.390625 87.765625 C35.4220459 88.99104004 35.4220459 88.99104004 35.45410156 90.24121094 C34.79192167 93.58059123 33.81486225 94.60665969 31 96.53125 C27.99815441 97.11588093 25.0506519 97.09184442 22 97.0625 C21.12730469 97.0663269 20.25460937 97.07015381 19.35546875 97.07409668 C17.51300908 97.0768149 15.67051076 97.06945994 13.828125 97.05273438 C11.00954066 97.03132248 8.19350515 97.05253801 5.375 97.078125 C3.58332771 97.07548171 1.79165701 97.07035669 0 97.0625 C-1.26263672 97.07464539 -1.26263672 97.07464539 -2.55078125 97.08703613 C-6.31082437 97.02684313 -8.37797303 96.95654509 -11.53808594 94.79589844 C-13.22575346 92.18153573 -13.4697632 90.85201467 -13.390625 87.765625 C-13.37128906 86.43144531 -13.37128906 86.43144531 -13.3515625 85.0703125 C-13.30128906 83.68972656 -13.30128906 83.68972656 -13.25 82.28125 C-13.23195312 81.34539062 -13.21390625 80.40953125 -13.1953125 79.4453125 C-13.14825673 77.13957985 -13.08253713 74.83594055 -13 72.53125 C-13.87736816 72.5626709 -13.87736816 72.5626709 -14.77246094 72.59472656 C-17.43146465 72.67805115 -20.09019355 72.72995897 -22.75 72.78125 C-23.67039063 72.81476563 -24.59078125 72.84828125 -25.5390625 72.8828125 C-26.87324219 72.90214844 -26.87324219 72.90214844 -28.234375 72.921875 C-29.05131836 72.94282227 -29.86826172 72.96376953 -30.70996094 72.98535156 C-34.04934123 72.32317167 -35.07540969 71.34611225 -37 68.53125 C-37.58463093 65.52940441 -37.56059442 62.5819019 -37.53125 59.53125 C-37.5350769 58.65855469 -37.53890381 57.78585938 -37.54284668 56.88671875 C-37.5455649 55.04425908 -37.53820994 53.20176076 -37.52148438 51.359375 C-37.50007248 48.54079066 -37.52128801 45.72475515 -37.546875 42.90625 C-37.54423171 41.11457771 -37.53910669 39.32290701 -37.53125 37.53125 C-37.53934692 36.68949219 -37.54744385 35.84773438 -37.55578613 34.98046875 C-37.49559313 31.22042563 -37.42529509 29.15327697 -35.26464844 25.99316406 C-32.65028573 24.30549654 -31.32076467 24.0614868 -28.234375 24.140625 C-26.90019531 24.15996094 -26.90019531 24.15996094 -25.5390625 24.1796875 C-24.15847656 24.22996094 -24.15847656 24.22996094 -22.75 24.28125 C-21.81414062 24.29929688 -20.87828125 24.31734375 -19.9140625 24.3359375 C-17.60832985 24.38299327 -15.30469055 24.44871287 -13 24.53125 C-13.02094727 23.94633789 -13.04189453 23.36142578 -13.06347656 22.75878906 C-13.14680115 20.09978535 -13.19870897 17.44105645 -13.25 14.78125 C-13.28351563 13.86085937 -13.31703125 12.94046875 -13.3515625 11.9921875 C-13.36445313 11.10273438 -13.37734375 10.21328125 -13.390625 9.296875 C-13.41157227 8.47993164 -13.43251953 7.66298828 -13.45410156 6.82128906 C-12.0147908 -0.43717057 -6.06389171 -0.05832897 0 0 Z M3 16.53125 C2.96261719 17.94019531 2.92523438 19.34914062 2.88671875 20.80078125 C2.82106503 22.64846439 2.75461749 24.49611945 2.6875 26.34375 C2.66494141 27.27251953 2.64238281 28.20128906 2.61914062 29.15820312 C2.58369141 30.05087891 2.54824219 30.94355469 2.51171875 31.86328125 C2.48553467 32.68546143 2.45935059 33.5076416 2.43237305 34.35473633 C1.8956865 37.05635153 1.24368083 37.94996551 -1 39.53125 C-3.17651367 39.96362305 -3.17651367 39.96362305 -5.66796875 40.04296875 C-6.56064453 40.07841797 -7.45332031 40.11386719 -8.37304688 40.15039062 C-9.76620117 40.18422852 -9.76620117 40.18422852 -11.1875 40.21875 C-12.59805664 40.26999023 -12.59805664 40.26999023 -14.03710938 40.32226562 C-16.3576536 40.40472151 -18.67880817 40.46966303 -21 40.53125 C-21 45.81125 -21 51.09125 -21 56.53125 C-19.59105469 56.56863281 -18.18210938 56.60601562 -16.73046875 56.64453125 C-14.88278561 56.71018497 -13.03513055 56.77663251 -11.1875 56.84375 C-10.25873047 56.86630859 -9.32996094 56.88886719 -8.37304688 56.91210938 C-7.48037109 56.94755859 -6.58769531 56.98300781 -5.66796875 57.01953125 C-4.43469849 57.05880737 -4.43469849 57.05880737 -3.17651367 57.09887695 C-0.47489847 57.6355635 0.41871551 58.28756917 2 60.53125 C2.43237305 62.70776367 2.43237305 62.70776367 2.51171875 65.19921875 C2.56489258 66.53823242 2.56489258 66.53823242 2.61914062 67.90429688 C2.64169922 68.83306641 2.66425781 69.76183594 2.6875 70.71875 C2.73874023 72.12930664 2.73874023 72.12930664 2.79101562 73.56835938 C2.87347151 75.8889036 2.93841303 78.21005817 3 80.53125 C8.28 80.53125 13.56 80.53125 19 80.53125 C19.03738281 79.12230469 19.07476562 77.71335938 19.11328125 76.26171875 C19.17893497 74.41403561 19.24538251 72.56638055 19.3125 70.71875 C19.33505859 69.78998047 19.35761719 68.86121094 19.38085938 67.90429688 C19.41630859 67.01162109 19.45175781 66.11894531 19.48828125 65.19921875 C19.51446533 64.37703857 19.54064941 63.5548584 19.56762695 62.70776367 C20.1043135 60.00614847 20.75631917 59.11253449 23 57.53125 C25.17651367 57.09887695 25.17651367 57.09887695 27.66796875 57.01953125 C28.56064453 56.98408203 29.45332031 56.94863281 30.37304688 56.91210938 C31.76620117 56.87827148 31.76620117 56.87827148 33.1875 56.84375 C34.12787109 56.80958984 35.06824219 56.77542969 36.03710938 56.74023438 C38.3576536 56.65777849 40.67880817 56.59283697 43 56.53125 C43 51.25125 43 45.97125 43 40.53125 C41.59105469 40.49386719 40.18210937 40.45648438 38.73046875 40.41796875 C36.88278561 40.35231503 35.03513055 40.28586749 33.1875 40.21875 C32.25873047 40.19619141 31.32996094 40.17363281 30.37304688 40.15039062 C29.48037109 40.11494141 28.58769531 40.07949219 27.66796875 40.04296875 C26.43469849 40.00369263 26.43469849 40.00369263 25.17651367 39.96362305 C22.47489847 39.4269365 21.58128449 38.77493083 20 36.53125 C19.56762695 34.35473633 19.56762695 34.35473633 19.48828125 31.86328125 C19.45283203 30.97060547 19.41738281 30.07792969 19.38085938 29.15820312 C19.34702148 27.76504883 19.34702148 27.76504883 19.3125 26.34375 C19.27833984 25.40337891 19.24417969 24.46300781 19.20898438 23.49414062 C19.12652849 21.1735964 19.06158697 18.85244183 19 16.53125 C13.72 16.53125 8.44 16.53125 3 16.53125 Z " fill="#06693a" transform="translate(245,175.46875)"/>
<path d="M0 0 C0.87269531 -0.0038269 1.74539062 -0.00765381 2.64453125 -0.01159668 C4.48699092 -0.0143149 6.32948924 -0.00695994 8.171875 0.00976562 C10.99045934 0.03117752 13.80649485 0.00996199 16.625 -0.015625 C18.41667229 -0.01298171 20.20834299 -0.00785669 22 0 C22.84175781 -0.00809692 23.68351562 -0.01619385 24.55078125 -0.02453613 C28.13136419 0.03278396 30.39761762 0.18098442 33.52929688 2.00195312 C35.73374916 5.79314264 35.57275697 9.21617695 35.53125 13.53125 C35.5350769 14.40394531 35.53890381 15.27664063 35.54284668 16.17578125 C35.5455649 18.01824092 35.53820994 19.86073924 35.52148438 21.703125 C35.50007248 24.52170934 35.52128801 27.33774485 35.546875 30.15625 C35.54423171 31.94792229 35.53910669 33.73959299 35.53125 35.53125 C35.53934692 36.37300781 35.54744385 37.21476562 35.55578613 38.08203125 C35.49846604 41.66261419 35.35026558 43.92886762 33.52929688 47.06054688 C29.73810736 49.26499916 26.31507305 49.10400697 22 49.0625 C21.12730469 49.0663269 20.25460937 49.07015381 19.35546875 49.07409668 C17.51300908 49.0768149 15.67051076 49.06945994 13.828125 49.05273438 C11.00954066 49.03132248 8.19350515 49.05253801 5.375 49.078125 C3.58332771 49.07548171 1.79165701 49.07035669 0 49.0625 C-0.84175781 49.07059692 -1.68351563 49.07869385 -2.55078125 49.08703613 C-6.13136419 49.02971604 -8.39761762 48.88151558 -11.52929688 47.06054688 C-13.73374916 43.26935736 -13.57275697 39.84632305 -13.53125 35.53125 C-13.5350769 34.65855469 -13.53890381 33.78585937 -13.54284668 32.88671875 C-13.5455649 31.04425908 -13.53820994 29.20176076 -13.52148438 27.359375 C-13.50007248 24.54079066 -13.52128801 21.72475515 -13.546875 18.90625 C-13.54423171 17.11457771 -13.53910669 15.32290701 -13.53125 13.53125 C-13.53934692 12.68949219 -13.54744385 11.84773438 -13.55578613 10.98046875 C-13.49846604 7.39988581 -13.35026558 5.13363238 -11.52929688 2.00195312 C-7.73810736 -0.20249916 -4.31507305 -0.04150697 0 0 Z M3 16.53125 C3 21.81125 3 27.09125 3 32.53125 C8.28 32.53125 13.56 32.53125 19 32.53125 C19 27.25125 19 21.97125 19 16.53125 C13.72 16.53125 8.44 16.53125 3 16.53125 Z " fill="#06693a" transform="translate(245,327.46875)"/>
<path d="M0 0 C0.87269531 -0.0038269 1.74539062 -0.00765381 2.64453125 -0.01159668 C4.48699092 -0.0143149 6.32948924 -0.00695994 8.171875 0.00976562 C10.99045934 0.03117752 13.80649485 0.00996199 16.625 -0.015625 C18.41667229 -0.01298171 20.20834299 -0.00785669 22 0 C22.84175781 -0.00809692 23.68351562 -0.01619385 24.55078125 -0.02453613 C28.13136419 0.03278396 30.39761762 0.18098442 33.52929688 2.00195312 C35.73374916 5.79314264 35.57275697 9.21617695 35.53125 13.53125 C35.5350769 14.40394531 35.53890381 15.27664063 35.54284668 16.17578125 C35.5455649 18.01824092 35.53820994 19.86073924 35.52148438 21.703125 C35.50007248 24.52170934 35.52128801 27.33774485 35.546875 30.15625 C35.54423171 31.94792229 35.53910669 33.73959299 35.53125 35.53125 C35.53934692 36.37300781 35.54744385 37.21476562 35.55578613 38.08203125 C35.49846604 41.66261419 35.35026558 43.92886762 33.52929688 47.06054688 C29.73810736 49.26499916 26.31507305 49.10400697 22 49.0625 C21.12730469 49.0663269 20.25460938 49.07015381 19.35546875 49.07409668 C17.51300908 49.0768149 15.67051076 49.06945994 13.828125 49.05273438 C11.00954066 49.03132248 8.19350515 49.05253801 5.375 49.078125 C3.58332771 49.07548171 1.79165701 49.07035669 0 49.0625 C-0.84175781 49.07059692 -1.68351563 49.07869385 -2.55078125 49.08703613 C-6.13136419 49.02971604 -8.39761762 48.88151558 -11.52929688 47.06054688 C-13.73374916 43.26935736 -13.57275697 39.84632305 -13.53125 35.53125 C-13.5350769 34.65855469 -13.53890381 33.78585937 -13.54284668 32.88671875 C-13.5455649 31.04425908 -13.53820994 29.20176076 -13.52148438 27.359375 C-13.50007248 24.54079066 -13.52128801 21.72475515 -13.546875 18.90625 C-13.54423171 17.11457771 -13.53910669 15.32290701 -13.53125 13.53125 C-13.53934692 12.68949219 -13.54744385 11.84773438 -13.55578613 10.98046875 C-13.49846604 7.39988581 -13.35026558 5.13363238 -11.52929688 2.00195312 C-7.73810736 -0.20249916 -4.31507305 -0.04150697 0 0 Z M3 16.53125 C3 21.81125 3 27.09125 3 32.53125 C8.28 32.53125 13.56 32.53125 19 32.53125 C19 27.25125 19 21.97125 19 16.53125 C13.72 16.53125 8.44 16.53125 3 16.53125 Z " fill="#06693a" transform="translate(173,327.46875)"/>
<path d="M0 0 C0.87269531 -0.0038269 1.74539062 -0.00765381 2.64453125 -0.01159668 C4.48699092 -0.0143149 6.32948924 -0.00695994 8.171875 0.00976562 C10.99045934 0.03117752 13.80649485 0.00996199 16.625 -0.015625 C18.41667229 -0.01298171 20.20834299 -0.00785669 22 0 C22.84175781 -0.00809692 23.68351562 -0.01619385 24.55078125 -0.02453613 C28.13136419 0.03278396 30.39761762 0.18098442 33.52929688 2.00195312 C35.73374916 5.79314264 35.57275697 9.21617695 35.53125 13.53125 C35.5350769 14.40394531 35.53890381 15.27664063 35.54284668 16.17578125 C35.5455649 18.01824092 35.53820994 19.86073924 35.52148438 21.703125 C35.50007248 24.52170934 35.52128801 27.33774485 35.546875 30.15625 C35.54423171 31.94792229 35.53910669 33.73959299 35.53125 35.53125 C35.53934692 36.37300781 35.54744385 37.21476562 35.55578613 38.08203125 C35.49846604 41.66261419 35.35026558 43.92886762 33.52929688 47.06054688 C29.73810736 49.26499916 26.31507305 49.10400697 22 49.0625 C21.12730469 49.0663269 20.25460938 49.07015381 19.35546875 49.07409668 C17.51300908 49.0768149 15.67051076 49.06945994 13.828125 49.05273438 C11.00954066 49.03132248 8.19350515 49.05253801 5.375 49.078125 C3.58332771 49.07548171 1.79165701 49.07035669 0 49.0625 C-0.84175781 49.07059692 -1.68351562 49.07869385 -2.55078125 49.08703613 C-6.13136419 49.02971604 -8.39761762 48.88151558 -11.52929688 47.06054688 C-13.73374916 43.26935736 -13.57275697 39.84632305 -13.53125 35.53125 C-13.5350769 34.65855469 -13.53890381 33.78585937 -13.54284668 32.88671875 C-13.5455649 31.04425908 -13.53820994 29.20176076 -13.52148438 27.359375 C-13.50007248 24.54079066 -13.52128801 21.72475515 -13.546875 18.90625 C-13.54423171 17.11457771 -13.53910669 15.32290701 -13.53125 13.53125 C-13.53934692 12.68949219 -13.54744385 11.84773438 -13.55578613 10.98046875 C-13.49846604 7.39988581 -13.35026558 5.13363238 -11.52929688 2.00195312 C-7.73810736 -0.20249916 -4.31507305 -0.04150697 0 0 Z M3 16.53125 C3 21.81125 3 27.09125 3 32.53125 C8.28 32.53125 13.56 32.53125 19 32.53125 C19 27.25125 19 21.97125 19 16.53125 C13.72 16.53125 8.44 16.53125 3 16.53125 Z " fill="#06693a" transform="translate(101,327.46875)"/>
<path d="M0 0 C0.87269531 -0.0038269 1.74539063 -0.00765381 2.64453125 -0.01159668 C4.48699092 -0.0143149 6.32948924 -0.00695994 8.171875 0.00976562 C10.99045934 0.03117752 13.80649485 0.00996199 16.625 -0.015625 C18.41667229 -0.01298171 20.20834299 -0.00785669 22 0 C22.84175781 -0.00809692 23.68351562 -0.01619385 24.55078125 -0.02453613 C28.13136419 0.03278396 30.39761762 0.18098442 33.52929688 2.00195312 C35.73374916 5.79314264 35.57275697 9.21617695 35.53125 13.53125 C35.5350769 14.40394531 35.53890381 15.27664063 35.54284668 16.17578125 C35.5455649 18.01824092 35.53820994 19.86073924 35.52148438 21.703125 C35.50007248 24.52170934 35.52128801 27.33774485 35.546875 30.15625 C35.54423171 31.94792229 35.53910669 33.73959299 35.53125 35.53125 C35.53934692 36.37300781 35.54744385 37.21476562 35.55578613 38.08203125 C35.49846604 41.66261419 35.35026558 43.92886762 33.52929688 47.06054688 C29.73810736 49.26499916 26.31507305 49.10400697 22 49.0625 C21.12730469 49.0663269 20.25460937 49.07015381 19.35546875 49.07409668 C17.51300908 49.0768149 15.67051076 49.06945994 13.828125 49.05273438 C11.00954066 49.03132248 8.19350515 49.05253801 5.375 49.078125 C3.58332771 49.07548171 1.79165701 49.07035669 0 49.0625 C-0.84175781 49.07059692 -1.68351562 49.07869385 -2.55078125 49.08703613 C-6.13136419 49.02971604 -8.39761762 48.88151558 -11.52929688 47.06054688 C-13.73374916 43.26935736 -13.57275697 39.84632305 -13.53125 35.53125 C-13.5350769 34.65855469 -13.53890381 33.78585937 -13.54284668 32.88671875 C-13.5455649 31.04425908 -13.53820994 29.20176076 -13.52148438 27.359375 C-13.50007248 24.54079066 -13.52128801 21.72475515 -13.546875 18.90625 C-13.54423171 17.11457771 -13.53910669 15.32290701 -13.53125 13.53125 C-13.53934692 12.68949219 -13.54744385 11.84773438 -13.55578613 10.98046875 C-13.49846604 7.39988581 -13.35026558 5.13363238 -11.52929688 2.00195312 C-7.73810736 -0.20249916 -4.31507305 -0.04150697 0 0 Z M3 16.53125 C3 21.81125 3 27.09125 3 32.53125 C8.28 32.53125 13.56 32.53125 19 32.53125 C19 27.25125 19 21.97125 19 16.53125 C13.72 16.53125 8.44 16.53125 3 16.53125 Z " fill="#06693a" transform="translate(389,263.46875)"/>
<path d="M0 0 C0.87269531 -0.0038269 1.74539062 -0.00765381 2.64453125 -0.01159668 C4.48699092 -0.0143149 6.32948924 -0.00695994 8.171875 0.00976562 C10.99045934 0.03117752 13.80649485 0.00996199 16.625 -0.015625 C18.41667229 -0.01298171 20.20834299 -0.00785669 22 0 C22.84175781 -0.00809692 23.68351562 -0.01619385 24.55078125 -0.02453613 C28.13136419 0.03278396 30.39761762 0.18098442 33.52929688 2.00195312 C35.73374916 5.79314264 35.57275697 9.21617695 35.53125 13.53125 C35.5350769 14.40394531 35.53890381 15.27664063 35.54284668 16.17578125 C35.5455649 18.01824092 35.53820994 19.86073924 35.52148438 21.703125 C35.50007248 24.52170934 35.52128801 27.33774485 35.546875 30.15625 C35.54423171 31.94792229 35.53910669 33.73959299 35.53125 35.53125 C35.53934692 36.37300781 35.54744385 37.21476562 35.55578613 38.08203125 C35.49846604 41.66261419 35.35026558 43.92886762 33.52929688 47.06054688 C29.73810736 49.26499916 26.31507305 49.10400697 22 49.0625 C21.12730469 49.0663269 20.25460938 49.07015381 19.35546875 49.07409668 C17.51300908 49.0768149 15.67051076 49.06945994 13.828125 49.05273438 C11.00954066 49.03132248 8.19350515 49.05253801 5.375 49.078125 C3.58332771 49.07548171 1.79165701 49.07035669 0 49.0625 C-0.84175781 49.07059692 -1.68351562 49.07869385 -2.55078125 49.08703613 C-6.13136419 49.02971604 -8.39761762 48.88151558 -11.52929688 47.06054688 C-13.73374916 43.26935736 -13.57275697 39.84632305 -13.53125 35.53125 C-13.5350769 34.65855469 -13.53890381 33.78585937 -13.54284668 32.88671875 C-13.5455649 31.04425908 -13.53820994 29.20176076 -13.52148438 27.359375 C-13.50007248 24.54079066 -13.52128801 21.72475515 -13.546875 18.90625 C-13.54423171 17.11457771 -13.53910669 15.32290701 -13.53125 13.53125 C-13.53934692 12.68949219 -13.54744385 11.84773438 -13.55578613 10.98046875 C-13.49846604 7.39988581 -13.35026558 5.13363238 -11.52929688 2.00195312 C-7.73810736 -0.20249916 -4.31507305 -0.04150697 0 0 Z M3 16.53125 C3 21.81125 3 27.09125 3 32.53125 C8.28 32.53125 13.56 32.53125 19 32.53125 C19 27.25125 19 21.97125 19 16.53125 C13.72 16.53125 8.44 16.53125 3 16.53125 Z " fill="#06693a" transform="translate(101,263.46875)"/>
<path d="M0 0 C0.87269531 -0.0038269 1.74539063 -0.00765381 2.64453125 -0.01159668 C4.48699092 -0.0143149 6.32948924 -0.00695994 8.171875 0.00976562 C10.99045934 0.03117752 13.80649485 0.00996199 16.625 -0.015625 C18.41667229 -0.01298171 20.20834299 -0.00785669 22 0 C22.84175781 -0.00809692 23.68351562 -0.01619385 24.55078125 -0.02453613 C28.13136419 0.03278396 30.39761762 0.18098442 33.52929688 2.00195312 C35.73374916 5.79314264 35.57275697 9.21617695 35.53125 13.53125 C35.5350769 14.40394531 35.53890381 15.27664062 35.54284668 16.17578125 C35.5455649 18.01824092 35.53820994 19.86073924 35.52148438 21.703125 C35.50007248 24.52170934 35.52128801 27.33774485 35.546875 30.15625 C35.54423171 31.94792229 35.53910669 33.73959299 35.53125 35.53125 C35.53934692 36.37300781 35.54744385 37.21476562 35.55578613 38.08203125 C35.49846604 41.66261419 35.35026558 43.92886762 33.52929688 47.06054688 C29.73810736 49.26499916 26.31507305 49.10400697 22 49.0625 C21.12730469 49.0663269 20.25460937 49.07015381 19.35546875 49.07409668 C17.51300908 49.0768149 15.67051076 49.06945994 13.828125 49.05273438 C11.00954066 49.03132248 8.19350515 49.05253801 5.375 49.078125 C3.58332771 49.07548171 1.79165701 49.07035669 0 49.0625 C-0.84175781 49.07059692 -1.68351562 49.07869385 -2.55078125 49.08703613 C-6.13136419 49.02971604 -8.39761762 48.88151558 -11.52929688 47.06054688 C-13.73374916 43.26935736 -13.57275697 39.84632305 -13.53125 35.53125 C-13.5350769 34.65855469 -13.53890381 33.78585938 -13.54284668 32.88671875 C-13.5455649 31.04425908 -13.53820994 29.20176076 -13.52148438 27.359375 C-13.50007248 24.54079066 -13.52128801 21.72475515 -13.546875 18.90625 C-13.54423171 17.11457771 -13.53910669 15.32290701 -13.53125 13.53125 C-13.53934692 12.68949219 -13.54744385 11.84773437 -13.55578613 10.98046875 C-13.49846604 7.39988581 -13.35026558 5.13363238 -11.52929688 2.00195312 C-7.73810736 -0.20249916 -4.31507305 -0.04150697 0 0 Z M3 16.53125 C3 21.81125 3 27.09125 3 32.53125 C8.28 32.53125 13.56 32.53125 19 32.53125 C19 27.25125 19 21.97125 19 16.53125 C13.72 16.53125 8.44 16.53125 3 16.53125 Z " fill="#06693a" transform="translate(389,199.46875)"/>
<path d="M0 0 C0.87269531 -0.0038269 1.74539062 -0.00765381 2.64453125 -0.01159668 C4.48699092 -0.0143149 6.32948924 -0.00695994 8.171875 0.00976562 C10.99045934 0.03117752 13.80649485 0.00996199 16.625 -0.015625 C18.41667229 -0.01298171 20.20834299 -0.00785669 22 0 C22.84175781 -0.00809692 23.68351562 -0.01619385 24.55078125 -0.02453613 C28.13136419 0.03278396 30.39761762 0.18098442 33.52929688 2.00195312 C35.73374916 5.79314264 35.57275697 9.21617695 35.53125 13.53125 C35.5350769 14.40394531 35.53890381 15.27664062 35.54284668 16.17578125 C35.5455649 18.01824092 35.53820994 19.86073924 35.52148438 21.703125 C35.50007248 24.52170934 35.52128801 27.33774485 35.546875 30.15625 C35.54423171 31.94792229 35.53910669 33.73959299 35.53125 35.53125 C35.53934692 36.37300781 35.54744385 37.21476562 35.55578613 38.08203125 C35.49846604 41.66261419 35.35026558 43.92886762 33.52929688 47.06054688 C29.73810736 49.26499916 26.31507305 49.10400697 22 49.0625 C21.12730469 49.0663269 20.25460938 49.07015381 19.35546875 49.07409668 C17.51300908 49.0768149 15.67051076 49.06945994 13.828125 49.05273438 C11.00954066 49.03132248 8.19350515 49.05253801 5.375 49.078125 C3.58332771 49.07548171 1.79165701 49.07035669 0 49.0625 C-0.84175781 49.07059692 -1.68351562 49.07869385 -2.55078125 49.08703613 C-6.13136419 49.02971604 -8.39761762 48.88151558 -11.52929688 47.06054688 C-13.73374916 43.26935736 -13.57275697 39.84632305 -13.53125 35.53125 C-13.5350769 34.65855469 -13.53890381 33.78585938 -13.54284668 32.88671875 C-13.5455649 31.04425908 -13.53820994 29.20176076 -13.52148438 27.359375 C-13.50007248 24.54079066 -13.52128801 21.72475515 -13.546875 18.90625 C-13.54423171 17.11457771 -13.53910669 15.32290701 -13.53125 13.53125 C-13.53934692 12.68949219 -13.54744385 11.84773437 -13.55578613 10.98046875 C-13.49846604 7.39988581 -13.35026558 5.13363238 -11.52929688 2.00195312 C-7.73810736 -0.20249916 -4.31507305 -0.04150697 0 0 Z M3 16.53125 C3 21.81125 3 27.09125 3 32.53125 C8.28 32.53125 13.56 32.53125 19 32.53125 C19 27.25125 19 21.97125 19 16.53125 C13.72 16.53125 8.44 16.53125 3 16.53125 Z " fill="#06693a" transform="translate(101,199.46875)"/>
<path d="M0 0 C0.87269531 -0.0038269 1.74539063 -0.00765381 2.64453125 -0.01159668 C4.48699092 -0.0143149 6.32948924 -0.00695994 8.171875 0.00976562 C10.99045934 0.03117752 13.80649485 0.00996199 16.625 -0.015625 C18.41667229 -0.01298171 20.20834299 -0.00785669 22 0 C22.84175781 -0.00809692 23.68351562 -0.01619385 24.55078125 -0.02453613 C28.13136419 0.03278396 30.39761762 0.18098442 33.52929688 2.00195312 C35.73374916 5.79314264 35.57275697 9.21617695 35.53125 13.53125 C35.5350769 14.40394531 35.53890381 15.27664062 35.54284668 16.17578125 C35.5455649 18.01824092 35.53820994 19.86073924 35.52148438 21.703125 C35.50007248 24.52170934 35.52128801 27.33774485 35.546875 30.15625 C35.54423171 31.94792229 35.53910669 33.73959299 35.53125 35.53125 C35.53934692 36.37300781 35.54744385 37.21476562 35.55578613 38.08203125 C35.49846604 41.66261419 35.35026558 43.92886762 33.52929688 47.06054688 C29.73810736 49.26499916 26.31507305 49.10400697 22 49.0625 C21.12730469 49.0663269 20.25460937 49.07015381 19.35546875 49.07409668 C17.51300908 49.0768149 15.67051076 49.06945994 13.828125 49.05273438 C11.00954066 49.03132248 8.19350515 49.05253801 5.375 49.078125 C3.58332771 49.07548171 1.79165701 49.07035669 0 49.0625 C-0.84175781 49.07059692 -1.68351562 49.07869385 -2.55078125 49.08703613 C-6.13136419 49.02971604 -8.39761762 48.88151558 -11.52929688 47.06054688 C-13.73374916 43.26935736 -13.57275697 39.84632305 -13.53125 35.53125 C-13.5350769 34.65855469 -13.53890381 33.78585938 -13.54284668 32.88671875 C-13.5455649 31.04425908 -13.53820994 29.20176076 -13.52148438 27.359375 C-13.50007248 24.54079066 -13.52128801 21.72475515 -13.546875 18.90625 C-13.54423171 17.11457771 -13.53910669 15.32290701 -13.53125 13.53125 C-13.53934692 12.68949219 -13.54744385 11.84773437 -13.55578613 10.98046875 C-13.49846604 7.39988581 -13.35026558 5.13363238 -11.52929688 2.00195312 C-7.73810736 -0.20249916 -4.31507305 -0.04150697 0 0 Z M3 16.53125 C3 21.81125 3 27.09125 3 32.53125 C8.28 32.53125 13.56 32.53125 19 32.53125 C19 27.25125 19 21.97125 19 16.53125 C13.72 16.53125 8.44 16.53125 3 16.53125 Z " fill="#06693a" transform="translate(389,135.46875)"/>
<path d="M0 0 C0.87269531 -0.0038269 1.74539062 -0.00765381 2.64453125 -0.01159668 C4.48699092 -0.0143149 6.32948924 -0.00695994 8.171875 0.00976562 C10.99045934 0.03117752 13.80649485 0.00996199 16.625 -0.015625 C18.41667229 -0.01298171 20.20834299 -0.00785669 22 0 C22.84175781 -0.00809692 23.68351562 -0.01619385 24.55078125 -0.02453613 C28.13136419 0.03278396 30.39761762 0.18098442 33.52929688 2.00195312 C35.73374916 5.79314264 35.57275697 9.21617695 35.53125 13.53125 C35.5350769 14.40394531 35.53890381 15.27664062 35.54284668 16.17578125 C35.5455649 18.01824092 35.53820994 19.86073924 35.52148438 21.703125 C35.50007248 24.52170934 35.52128801 27.33774485 35.546875 30.15625 C35.54423171 31.94792229 35.53910669 33.73959299 35.53125 35.53125 C35.53934692 36.37300781 35.54744385 37.21476562 35.55578613 38.08203125 C35.49846604 41.66261419 35.35026558 43.92886762 33.52929688 47.06054688 C29.73810736 49.26499916 26.31507305 49.10400697 22 49.0625 C21.12730469 49.0663269 20.25460938 49.07015381 19.35546875 49.07409668 C17.51300908 49.0768149 15.67051076 49.06945994 13.828125 49.05273438 C11.00954066 49.03132248 8.19350515 49.05253801 5.375 49.078125 C3.58332771 49.07548171 1.79165701 49.07035669 0 49.0625 C-0.84175781 49.07059692 -1.68351562 49.07869385 -2.55078125 49.08703613 C-6.13136419 49.02971604 -8.39761762 48.88151558 -11.52929688 47.06054688 C-13.73374916 43.26935736 -13.57275697 39.84632305 -13.53125 35.53125 C-13.5350769 34.65855469 -13.53890381 33.78585938 -13.54284668 32.88671875 C-13.5455649 31.04425908 -13.53820994 29.20176076 -13.52148438 27.359375 C-13.50007248 24.54079066 -13.52128801 21.72475515 -13.546875 18.90625 C-13.54423171 17.11457771 -13.53910669 15.32290701 -13.53125 13.53125 C-13.53934692 12.68949219 -13.54744385 11.84773437 -13.55578613 10.98046875 C-13.49846604 7.39988581 -13.35026558 5.13363238 -11.52929688 2.00195312 C-7.73810736 -0.20249916 -4.31507305 -0.04150697 0 0 Z M3 16.53125 C3 21.81125 3 27.09125 3 32.53125 C8.28 32.53125 13.56 32.53125 19 32.53125 C19 27.25125 19 21.97125 19 16.53125 C13.72 16.53125 8.44 16.53125 3 16.53125 Z " fill="#06693a" transform="translate(101,135.46875)"/>
</svg>
