<?xml version="1.0" encoding="UTF-8"?>
<svg version="1.1" xmlns="http://www.w3.org/2000/svg" width="37" height="55">
<path d="M0 0 C4.44510698 3.33383023 5.35836293 6.50658761 6.5 11.875 C7.27261897 17.58812739 6.47963308 20.85705732 4 26 C2.97642108 27.83327852 2.97642108 27.83327852 3 30 C4.80210767 32.6514617 6.73098437 34.99836702 8.83984375 37.40234375 C11.08709278 40.13964709 12.00957743 41.54704374 11.93359375 45.140625 C11.06668862 47.79574865 10.22598421 49.65373028 8.5625 51.875 C8.13066406 52.47054687 7.69882812 53.06609375 7.25390625 53.6796875 C6.84011719 54.11539063 6.42632813 54.55109375 6 55 C5.34 55 4.68 55 4 55 C2.37053772 52.69404616 0.8564103 50.39803293 -0.625 48 C-1.04523437 47.33226562 -1.46546875 46.66453125 -1.8984375 45.9765625 C-2.93864592 44.32168546 -3.97014051 42.66133712 -5 41 C-8.04516202 43.83332467 -10.16868601 46.65500311 -12.25 50.25 C-12.77078125 51.14203125 -13.2915625 52.0340625 -13.828125 52.953125 C-14.21484375 53.62859375 -14.6015625 54.3040625 -15 55 C-18.59624508 53.80125164 -18.94102427 52.96359217 -20.75 49.75 C-21.42289063 48.59757812 -21.42289063 48.59757812 -22.109375 47.421875 C-23.19862146 44.45988902 -22.95397446 42.97873657 -22 40 C-21.34 39.01 -20.68 38.02 -20 37 C-19.34 37 -18.68 37 -18 37 C-17.71125 36.2575 -17.4225 35.515 -17.125 34.75 C-16 32 -16 32 -14.6875 30 C-14.460625 29.34 -14.23375 28.68 -14 28 C-14.95939668 26.30963442 -15.96642853 24.64605826 -17 23 C-18.79440039 16.59142718 -17.37899155 11.05476674 -15 5 C-11.26683964 -0.76942965 -6.43066706 -1.42786193 0 0 Z M-9 3 C-10.485 4.98 -10.485 4.98 -12 7 C-7.71 7 -3.42 7 1 7 C0.67 6.01 0.34 5.02 0 4 C-3.0832635 2.45836825 -5.60878099 2.70252465 -9 3 Z M-10 10 C-8.90931332 13.77545388 -8.0916909 16.47043472 -5 19 C-4.319375 17.906875 -3.63875 16.81375 -2.9375 15.6875 C-2.55464844 15.07261719 -2.17179687 14.45773438 -1.77734375 13.82421875 C-0.68887926 11.82866925 -0.68887926 11.82866925 -2 9 C-6.14093698 8.79029441 -6.14093698 8.79029441 -10 10 Z M1 13 C-2.03881908 17.33969197 -2.03881908 17.33969197 -2.875 22.3125 C-2.00702329 24.19447261 -2.00702329 24.19447261 0 26 C3.36055646 21.51925805 3.27429625 18.39449293 3 13 C2.34 13 1.68 13 1 13 Z M-14 14 C-14.95465783 16.16967689 -15.14401212 17.56328793 -14.3984375 19.82421875 C-13.64129615 21.5684743 -12.82390802 23.28627131 -12 25 C-10.68 24.34 -9.36 23.68 -8 23 C-9.05875074 19.59687262 -10.00902154 16.98646769 -12 14 C-12.66 14 -13.32 14 -14 14 Z M-6 25 C-7.485 26.98 -7.485 26.98 -9 29 C-7.68 30.32 -6.36 31.64 -5 33 C-2.73197594 30.30009243 -2.73197594 30.30009243 -3.25 27.875 C-3.83736927 25.8044971 -3.83736927 25.8044971 -6 25 Z M-12 32 C-12 32.66 -12 33.32 -12 34 C-12.99 34 -13.98 34 -15 34 C-15 34.99 -15 35.98 -15 37 C-15.66 37 -16.32 37 -17 37 C-17.99 39.31 -18.98 41.62 -20 44 C-18.68 45.65 -17.36 47.3 -16 49 C-14.63053378 47.26194659 -13.27984046 45.50908767 -11.9375 43.75 C-10.80634766 42.28820312 -10.80634766 42.28820312 -9.65234375 40.796875 C-7.76367691 38.21764335 -7.76367691 38.21764335 -8.19140625 35.765625 C-8.77120276 34.4995959 -9.37726512 33.24546976 -10 32 C-10.66 32 -11.32 32 -12 32 Z M-1 32 C-2.485 34.475 -2.485 34.475 -4 37 C-0.04 42.94 -0.04 42.94 4 49 C4.99 48.67 5.98 48.34 7 48 C8.21869929 45.49552484 8.21869929 45.49552484 9 43 C7.52444734 41.16375669 6.04446569 39.3310715 4.5625 37.5 C3.32693359 35.96859375 3.32693359 35.96859375 2.06640625 34.40625 C1.38449219 33.6121875 0.70257812 32.818125 0 32 C-0.33 32 -0.66 32 -1 32 Z " fill="#ffffff" transform="translate(24,0)"/>
</svg>
